<svg width="22" height="15" viewBox="0 0 22 15" fill="none" xmlns="http://www.w3.org/2000/svg">
<g clip-path="url(#clip0)">
<path d="M8.63958 7.20814C9.07537 6.97646 9.40483 6.71842 9.6306 6.43957C10.0323 5.93736 10.2305 5.27145 10.2305 4.446C10.2305 3.64275 10.0323 2.95603 9.63585 2.3803C8.9743 1.44248 7.85464 0.962472 6.27164 0.9375H0V14.4679H5.84767C6.5066 14.4679 7.11696 14.4083 7.68138 14.2862C8.2458 14.1627 8.73409 13.9366 9.14756 13.6064C9.51509 13.3192 9.82224 12.9627 10.0664 12.5423C10.4523 11.907 10.6452 11.1869 10.6452 10.3851C10.6452 9.60818 10.4759 8.94643 10.1399 8.40261C9.79993 7.85878 9.30114 7.46063 8.63958 7.20814ZM2.58715 3.2876H5.41188C6.03275 3.2876 6.54466 3.35835 6.94632 3.49847C7.41098 3.70241 7.64331 4.11721 7.64331 4.74982C7.64331 5.31723 7.46611 5.714 7.11565 5.93736C6.76256 6.16072 6.30446 6.27309 5.74266 6.27309H2.58715V3.2876ZM7.05395 11.882C6.74155 12.0415 6.30183 12.1206 5.73872 12.1206H2.58715V8.51221H5.78204C6.33858 8.51637 6.77174 8.59406 7.08152 8.73973C7.63281 9.00331 7.90715 9.4861 7.90715 10.1922C7.90715 11.0246 7.62363 11.5851 7.05395 11.882Z" fill="white"/>
<path d="M19.1467 1.56873H13.5852V3.25292H19.1467V1.56873Z" fill="white"/>
<path d="M21.079 8.29496C20.9635 7.51114 20.7088 6.82164 20.3124 6.22649C19.8779 5.55226 19.3266 5.05837 18.6559 4.74623C17.9878 4.4327 17.2357 4.27593 16.3982 4.27732C14.9924 4.27732 13.8504 4.74207 12.9671 5.66463C12.0863 6.58996 11.6453 7.92039 11.6453 9.65453C11.6453 11.5038 12.1322 12.8398 13.1114 13.6597C14.0867 14.481 15.2129 14.8902 16.4914 14.8902C18.039 14.8902 19.2426 14.4033 20.1024 13.4322C20.6524 12.819 20.9635 12.2155 21.0317 11.6231H18.4695C18.3212 11.9158 18.1492 12.1447 17.9523 12.3112C17.5953 12.6164 17.1307 12.769 16.561 12.769C16.0189 12.769 15.5595 12.6428 15.1762 12.3917C14.5435 11.9894 14.2127 11.2846 14.1707 10.2816H21.163C21.1735 9.4173 21.1472 8.75278 21.079 8.29496ZM14.2337 8.55439C14.3256 7.90374 14.5488 7.38766 14.9032 7.00615C15.2576 6.62603 15.759 6.43458 16.4008 6.4332C16.9928 6.4332 17.4877 6.61216 17.8907 6.97147C18.2884 7.33356 18.5128 7.85935 18.5588 8.55439H14.2337Z" fill="white"/>
</g>
<defs>
<clipPath id="clip0">
<rect y="0.9375" width="21.1652" height="13.9527" fill="white"/>
</clipPath>
</defs>
</svg>
