<svg width="10" height="18" viewBox="0 0 10 18" fill="none" xmlns="http://www.w3.org/2000/svg">
<g clip-path="url(#clip0)">
<path d="M8.82935 0.418229L6.62873 0.414612C4.1564 0.414612 2.55866 2.09381 2.55866 4.69281V6.66535H0.346029C0.154829 6.66535 0 6.82413 0 7.02V9.87798C0 10.0739 0.155006 10.2325 0.346029 10.2325H2.55866V17.4441C2.55866 17.6399 2.71349 17.7985 2.90469 17.7985H5.79155C5.98275 17.7985 6.13758 17.6397 6.13758 17.4441V10.2325H8.72467C8.91586 10.2325 9.07069 10.0739 9.07069 9.87798L9.07175 7.02C9.07175 6.92595 9.03521 6.8359 8.97041 6.76933C8.90562 6.70278 8.81735 6.66535 8.72554 6.66535H6.13758V4.99321C6.13758 4.18951 6.32454 3.78151 7.34656 3.78151L8.829 3.78096C9.02002 3.78096 9.17485 3.62217 9.17485 3.42649V0.772696C9.17485 0.577197 9.0202 0.418591 8.82935 0.418229Z" fill="white"/>
</g>
<defs>
<clipPath id="clip0">
<rect y="0.414612" width="9.17485" height="17.3839" fill="white"/>
</clipPath>
</defs>
</svg>
