<svg width="160" height="160" viewBox="0 0 160 160" fill="none" xmlns="http://www.w3.org/2000/svg">
<path d="M149.333 21.3334V26.6667C152.279 26.6667 154.667 29.054 154.667 32V112H5.33333V32C5.33333 29.054 7.72067 26.6667 10.6667 26.6667V21.3334C4.776 21.3334 0 26.1094 0 32V122.667C0 128.557 4.776 133.333 10.6667 133.333H63.0827L56.6827 154.667H50.6667V160H109.333V154.667H103.317L96.9173 133.333H149.333C155.224 133.333 160 128.557 160 122.667V32C160 26.1094 155.224 21.3334 149.333 21.3334ZM97.7493 154.667H62.2507L68.6507 133.333H91.3493L97.7493 154.667ZM154.667 122.667C154.667 125.613 152.279 128 149.333 128H10.6667C7.72067 128 5.33333 125.613 5.33333 122.667V117.333H154.667V122.667Z" fill="#808080"/>
<path d="M144 106.667V10.6667C144 4.776 139.224 0 133.333 0H26.6666C20.7759 0 15.9999 4.776 15.9999 10.6667V106.667H21.3333V10.6667C21.3333 7.72067 23.7206 5.33333 26.6666 5.33333H133.333C136.279 5.33333 138.667 7.72067 138.667 10.6667V106.667H144Z" fill="#808080"/>
<path d="M26.6665 10.6666H31.9999V16H26.6665V10.6666Z" fill="#808080"/>
<path d="M37.3332 10.6666H42.6665V16H37.3332V10.6666Z" fill="#808080"/>
<path d="M48 10.6666H53.3333V16H48V10.6666Z" fill="#808080"/>
<path d="M26.6665 21.3334H133.333V26.6667H26.6665V21.3334Z" fill="#808080"/>
<path d="M77.3332 34.6667C77.3332 33.1933 76.1399 32 74.6665 32H29.3332C27.8599 32 26.6665 33.1933 26.6665 34.6667V72C26.6665 73.4733 27.8599 74.6667 29.3332 74.6667H74.6665C76.1399 74.6667 77.3332 73.4733 77.3332 72V34.6667ZM42.6665 69.3333H31.9999V50.6667H42.6665V69.3333ZM71.9999 69.3333H47.9999V50.6667H71.9999V69.3333ZM71.9999 45.3333H31.9999V37.3333H71.9999V45.3333Z" fill="#808080"/>
<path d="M133.334 34.6667C133.334 33.1933 132.14 32 130.667 32H85.3335C83.8602 32 82.6668 33.1933 82.6668 34.6667V72C82.6668 73.4733 83.8602 74.6667 85.3335 74.6667H130.667C132.14 74.6667 133.334 73.4733 133.334 72V34.6667ZM112 69.3333H88.0002V50.6667H112V69.3333ZM128 69.3333H117.334V50.6667H128V69.3333ZM128 45.3333H88.0002V37.3333H128V45.3333Z" fill="#808080"/>
<path d="M77.3332 106.667V82.6667C77.3332 81.1933 76.1399 80 74.6665 80H29.3332C27.8599 80 26.6665 81.1933 26.6665 82.6667V106.667H31.9999V98.6667H71.9999V106.667H77.3332ZM31.9999 93.3333V85.3333H71.9999V93.3333H31.9999Z" fill="#808080"/>
<path d="M133.334 106.667V82.6667C133.334 81.1933 132.14 80 130.667 80H85.3335C83.8602 80 82.6668 81.1933 82.6668 82.6667V106.667H88.0002V85.3333H98.6668V106.667H104V85.3333H128V106.667H133.334Z" fill="#808080"/>
</svg>
