<svg width="160" height="160" viewBox="0 0 160 160" fill="none" xmlns="http://www.w3.org/2000/svg">
<path d="M149.333 21.3333V26.6666C152.279 26.6666 154.667 29.054 154.667 32V112H5.33333V32C5.33333 29.054 7.72067 26.6666 10.6667 26.6666V21.3333C4.776 21.3333 0 26.1093 0 32V122.667C0 128.557 4.776 133.333 10.6667 133.333H63.0827L56.6827 154.667H50.6667V160H109.333V154.667H103.317L96.9173 133.333H149.333C155.224 133.333 160 128.557 160 122.667V32C160 26.1093 155.224 21.3333 149.333 21.3333ZM97.7493 154.667H62.2507L68.6507 133.333H91.3493L97.7493 154.667ZM154.667 122.667C154.667 125.613 152.279 128 149.333 128H10.6667C7.72067 128 5.33333 125.613 5.33333 122.667V117.333H154.667V122.667Z" fill="#808080"/>
<path d="M144 106.667V10.6667C144 4.776 139.224 0 133.333 0H26.6666C20.776 0 16 4.776 16 10.6667V106.667H21.3333V10.6667C21.3333 7.72067 23.7206 5.33333 26.6666 5.33333H133.333C136.279 5.33333 138.667 7.72067 138.667 10.6667V106.667H144Z" fill="#808080"/>
<path d="M26.6667 10.6667H32V16H26.6667V10.6667Z" fill="#808080"/>
<path d="M37.3334 10.6667H42.6667V16H37.3334V10.6667Z" fill="#808080"/>
<path d="M48 10.6667H53.3333V16H48V10.6667Z" fill="#808080"/>
<path d="M26.6667 21.3333H133.333V26.6667H26.6667V21.3333Z" fill="#808080"/>
<path d="M56 58.6667C57.4733 58.6667 58.6667 57.4733 58.6667 56V34.6667C58.6667 33.1933 57.4733 32 56 32H29.3333C27.86 32 26.6667 33.1933 26.6667 34.6667V56C26.6667 57.4733 27.86 58.6667 29.3333 58.6667H56ZM32 37.3333H53.3333V53.3333H32V37.3333Z" fill="#808080"/>
<path d="M64 32H85.3334V37.3333H64V32Z" fill="#808080"/>
<path d="M64 42.6667H106.667V48H64V42.6667Z" fill="#808080"/>
<path d="M64 53.3333H85.3334V58.6666H64V53.3333Z" fill="#808080"/>
<path d="M26.6667 64H133.333V69.3334H26.6667V64Z" fill="#808080"/>
<path d="M112 42.6667H133.333V48H112V42.6667Z" fill="#808080"/>
<path d="M90.6667 53.3333H128V58.6666H90.6667V53.3333Z" fill="#808080"/>
<path d="M29.3333 74.6666C27.86 74.6666 26.6667 75.86 26.6667 77.3333V98.6666C26.6667 100.14 27.86 101.333 29.3333 101.333H56C57.4733 101.333 58.6667 100.14 58.6667 98.6666V77.3333C58.6667 75.86 57.4733 74.6666 56 74.6666H29.3333ZM53.3333 96H32V80H53.3333V96Z" fill="#808080"/>
<path d="M64 74.6666H85.3334V79.9999H64V74.6666Z" fill="#808080"/>
<path d="M64 85.3334H106.667V90.6667H64V85.3334Z" fill="#808080"/>
<path d="M64 96H85.3334V101.333H64V96Z" fill="#808080"/>
<path d="M112 85.3334H133.333V90.6667H112V85.3334Z" fill="#808080"/>
<path d="M90.6667 96H128V101.333H90.6667V96Z" fill="#808080"/>
</svg>
