<svg width="160" height="160" viewBox="0 0 160 160" fill="none" xmlns="http://www.w3.org/2000/svg">
<g clip-path="url(#clip0)">
<path d="M146.667 0H13.3334C7.45063 0 2.66656 4.78406 2.66656 10.6666V117.333C2.66656 123.216 7.45063 128 13.3331 128H146.667C152.549 128 157.333 123.216 157.333 117.333V10.6666C157.333 4.78406 152.549 0 146.667 0ZM152 117.333C152 120.275 149.608 122.667 146.667 122.667H13.3334C10.3922 122.667 8 120.275 8 117.333V10.6666C8 7.72531 10.3919 5.33312 13.3334 5.33312H146.667C149.608 5.33312 152 7.725 152 10.6666V117.333H152Z" fill="#808080"/>
<path d="M101.296 156.896L95.9625 124.896C95.7491 123.611 94.6372 122.667 93.3331 122.667H66.6666C65.3625 122.667 64.2506 123.611 64.0372 124.893L58.7038 156.893C58.5756 157.667 58.7919 158.456 59.2985 159.056C59.805 159.656 60.5491 160 61.3331 160H98.6666C99.4506 160 100.195 159.656 100.698 159.059C101.208 158.459 101.427 157.669 101.296 156.896ZM64.4828 154.667L68.9281 128H91.0775L95.5203 154.667H64.4828Z" fill="#808080"/>
<path d="M106.667 154.667H53.3334C51.8615 154.667 50.6668 155.858 50.6668 157.333C50.6668 158.808 51.8615 160 53.3334 160H106.667C108.142 160 109.333 158.808 109.333 157.333C109.333 155.859 108.141 154.667 106.667 154.667Z" fill="#808080"/>
<path d="M157.333 101.333H8V106.667H157.333V101.333Z" fill="#808080"/>
<path d="M24 16C24 20.4107 20.4106 24 16 24C11.5894 24 8 20.4107 8 16V13.3335H2.66656V16C2.66656 23.3519 8.64781 29.3335 16 29.3335C23.3519 29.3335 29.3334 23.3522 29.3334 16H24Z" fill="#808080"/>
<path d="M45.3334 16C45.3334 20.4107 41.7441 24 37.3334 24C32.9228 24 29.3334 20.4107 29.3334 16V2.6666H24V16C24 23.3519 29.9812 29.3335 37.3334 29.3335C44.6856 29.3335 50.6669 23.3522 50.6669 16H45.3334Z" fill="#808080"/>
<path d="M66.6666 16C66.6666 20.4107 63.0772 24 58.6666 24C54.2559 24 50.6666 20.4107 50.6666 16V2.6666H45.3331V16C45.3331 23.3519 51.3144 29.3335 58.6666 29.3335C66.0184 29.3335 72 23.3522 72 16H66.6666Z" fill="#808080"/>
<path d="M88 16C88 20.4107 84.4106 24 79.9999 24C75.5893 24 71.9999 20.4107 71.9999 16V2.6666H66.6665V16C66.6665 23.3519 72.6478 29.3335 79.9999 29.3335C87.3518 29.3335 93.3334 23.3522 93.3334 16H88Z" fill="#808080"/>
<path d="M109.333 2.6666V16C109.333 20.4107 105.744 24 101.333 24C96.9228 24 93.3334 20.4107 93.3334 16V2.6666H88V16C88 23.3519 93.9812 29.3335 101.333 29.3335C108.685 29.3335 114.667 23.3522 114.667 16V2.6666H109.333Z" fill="#808080"/>
<path d="M130.667 2.6666V16C130.667 20.4107 127.077 24 122.667 24C118.256 24 114.667 20.4107 114.667 16V2.6666H109.333V16C109.333 23.3519 115.314 29.3335 122.667 29.3335C130.018 29.3335 136 23.3522 136 16V2.6666H130.667Z" fill="#808080"/>
<path d="M152 13.3335V16C152 20.4107 148.411 24 144 24C139.589 24 136 20.4107 136 16V2.6666H130.667V16C130.667 23.3519 136.648 29.3335 144 29.3335C151.352 29.3335 157.333 23.3522 157.333 16V13.3335H152Z" fill="#808080"/>
<path d="M146.035 62.2772C145.528 61.6772 144.784 61.3331 144 61.3331H123.416L122.587 58.0184C122.288 56.8344 121.224 55.9997 120 55.9997H112V61.3331H117.917L122.747 80.645C123.045 81.8316 124.109 82.6663 125.333 82.6663H141.333C142.637 82.6663 143.749 81.7222 143.965 80.4397L146.632 64.4397C146.76 63.6666 146.541 62.8772 146.035 62.2772ZM139.075 77.3334H127.416L124.749 66.6669H140.851L139.075 77.3334Z" fill="#808080"/>
<path d="M128 87.9999H122.667V93.3334H128V87.9999Z" fill="#808080"/>
<path d="M141.333 87.9999H136V93.3334H141.333V87.9999Z" fill="#808080"/>
<path d="M37.3334 34.6665H16C14.5281 34.6665 13.3334 35.8612 13.3334 37.3331V58.6665C13.3334 60.1384 14.5281 61.3331 16 61.3331H37.3334C38.8053 61.3331 40 60.1384 40 58.6665V37.3331C40 35.8612 38.8053 34.6665 37.3334 34.6665ZM34.6666 55.9999H18.6666V39.9999H34.6666V55.9999Z" fill="#808080"/>
<path d="M37.3334 66.6665H16C14.5281 66.6665 13.3334 67.8612 13.3334 69.3331V90.6665C13.3334 92.1412 14.5281 93.3331 16 93.3331H37.3334C38.8053 93.3331 40 92.1412 40 90.6665V69.3331C40 67.8612 38.8053 66.6665 37.3334 66.6665ZM34.6666 87.9999H18.6666V71.9999H34.6666V87.9999Z" fill="#808080"/>
<path d="M69.3334 34.6665H48C46.5281 34.6665 45.3334 35.8612 45.3334 37.3331V58.6665C45.3334 60.1384 46.5281 61.3331 48 61.3331H69.3334C70.8053 61.3331 72 60.1384 72 58.6665V37.3331C72 35.8612 70.8053 34.6665 69.3334 34.6665ZM66.6666 55.9999H50.6666V39.9999H66.6666V55.9999V55.9999Z" fill="#808080"/>
<path d="M69.3334 66.6665H48C46.5281 66.6665 45.3334 67.8612 45.3334 69.3331V90.6665C45.3334 92.1412 46.5281 93.3331 48 93.3331H69.3334C70.8053 93.3331 72 92.1412 72 90.6665V69.3331C72 67.8612 70.8053 66.6665 69.3334 66.6665ZM66.6666 87.9999H50.6666V71.9999H66.6666V87.9999V87.9999Z" fill="#808080"/>
<path d="M101.333 34.6665H79.9999C78.5281 34.6665 77.3334 35.8612 77.3334 37.3331V58.6665C77.3334 60.1384 78.5281 61.3331 79.9999 61.3331H101.333C102.808 61.3331 104 60.1384 104 58.6665V37.3331C104 35.8612 102.808 34.6665 101.333 34.6665ZM98.6665 55.9999H82.6665V39.9999H98.6665V55.9999Z" fill="#808080"/>
<path d="M101.333 66.6665H79.9999C78.5281 66.6665 77.3334 67.8612 77.3334 69.3331V90.6665C77.3334 92.1412 78.5281 93.3331 79.9999 93.3331H90.6665V87.9999H82.6665V71.9999H98.6665V74.6665H104V69.3331C104 67.8612 102.808 66.6665 101.333 66.6665Z" fill="#808080"/>
<path d="M98.6666 80C97.1919 80 96 81.1919 96 82.6666V93.3331H101.333V85.3331H109.333V80H98.6666Z" fill="#808080"/>
<path d="M100.546 80.7715L96.7749 84.5426L107.442 95.2094L111.213 91.4383L100.546 80.7715Z" fill="#808080"/>
<path d="M146.528 44.4906C146.168 43.3999 145.149 42.6665 144 42.6665H141.333V37.3331C141.333 35.8612 140.142 34.6665 138.667 34.6665H128C126.525 34.6665 125.333 35.8612 125.333 37.3331V42.6665H122.667C121.518 42.6665 120.502 43.3999 120.136 44.4906C119.773 45.5787 120.147 46.7787 121.067 47.4665L131.733 55.4665C132.208 55.8212 132.771 55.9999 133.333 55.9999C133.896 55.9999 134.459 55.8212 134.931 55.4665L145.598 47.4665C146.517 46.7787 146.893 45.5812 146.528 44.4906ZM133.333 49.9999L129.771 47.3281C130.32 46.8399 130.667 46.1253 130.667 45.3334V39.9999H136V45.3334C136 46.1253 136.347 46.8399 136.896 47.3281L133.333 49.9999Z" fill="#808080"/>
</g>
<defs>
<clipPath id="clip0">
<rect width="160" height="160" fill="white"/>
</clipPath>
</defs>
</svg>
