<svg width="160" height="160" viewBox="0 0 160 160" fill="none" xmlns="http://www.w3.org/2000/svg">
<path d="M149.333 21.3334V26.6667C152.279 26.6667 154.667 29.054 154.667 32V112H5.33333V32C5.33333 29.054 7.72067 26.6667 10.6667 26.6667V21.3334C4.776 21.3334 0 26.1094 0 32V122.667C0 128.557 4.776 133.333 10.6667 133.333H63.0827L56.6827 154.667H50.6667V160H109.333V154.667H103.317L96.9173 133.333H149.333C155.224 133.333 160 128.557 160 122.667V32C160 26.1094 155.224 21.3334 149.333 21.3334ZM97.7493 154.667H62.2507L68.6507 133.333H91.3493L97.7493 154.667ZM154.667 122.667C154.667 125.613 152.279 128 149.333 128H10.6667C7.72067 128 5.33333 125.613 5.33333 122.667V117.333H154.667V122.667Z" fill="#808080"/>
<path d="M26.6665 106.667H133.333C139.224 106.667 144 101.891 144 96V10.6667C144 4.776 139.224 0 133.333 0H26.6665C20.7759 0 15.9999 4.776 15.9999 10.6667V96C15.9999 101.891 20.7759 106.667 26.6665 106.667ZM21.3332 10.6667C21.3332 7.72067 23.7205 5.33333 26.6665 5.33333H133.333C136.279 5.33333 138.667 7.72067 138.667 10.6667V96C138.667 98.946 136.279 101.333 133.333 101.333H26.6665C23.7205 101.333 21.3332 98.946 21.3332 96V10.6667Z" fill="#808080"/>
<path d="M26.6666 21.3334H133.333V26.6667H26.6666V21.3334Z" fill="#808080"/>
<path d="M26.6666 34.6667H50.6666V40H26.6666V34.6667Z" fill="#808080"/>
<path d="M26.6666 45.3333H45.3333V50.6666H26.6666V45.3333Z" fill="#808080"/>
<path d="M26.6666 55.9999H42.6666V61.3333H26.6666V55.9999Z" fill="#808080"/>
<path d="M26.6666 66.6666H42.6666V72H26.6666V66.6666Z" fill="#808080"/>
<path d="M26.6666 77.3334H42.6666V82.6667H26.6666V77.3334Z" fill="#808080"/>
<path d="M26.6666 88H50.6666V93.3333H26.6666V88Z" fill="#808080"/>
<path d="M109.333 34.6667H133.333V40H109.333V34.6667Z" fill="#808080"/>
<path d="M114.667 45.3333H133.333V50.6666H114.667V45.3333Z" fill="#808080"/>
<path d="M117.333 55.9999H133.333V61.3333H117.333V55.9999Z" fill="#808080"/>
<path d="M117.333 66.6666H133.333V72H117.333V66.6666Z" fill="#808080"/>
<path d="M117.333 77.3334H133.333V82.6667H117.333V77.3334Z" fill="#808080"/>
<path d="M109.333 88H133.333V93.3333H109.333V88Z" fill="#808080"/>
<path d="M26.6666 10.6667H32V16.0001H26.6666V10.6667Z" fill="#808080"/>
<path d="M37.3333 10.6667H42.6666V16.0001H37.3333V10.6667Z" fill="#808080"/>
<path d="M48.0001 10.6667H53.3335V16.0001H48.0001V10.6667Z" fill="#808080"/>
<path d="M101.643 74.328C102.004 73.568 102.325 72.792 102.608 72H109.333C110.807 72 112 70.8066 112 69.3333V58.6666C112 57.1933 110.807 56 109.333 56H102.608C102.325 55.208 102.004 54.432 101.643 53.672L106.4 48.9146C107.441 47.8739 107.441 46.1853 106.4 45.1453L98.8548 37.5999C97.8148 36.5586 96.1261 36.5586 95.0854 37.5999L90.3281 42.3539C89.5681 41.9946 88.7921 41.6733 88.0001 41.3919V34.6666C88.0001 33.1933 86.8068 31.9999 85.3334 31.9999H74.6668C73.1934 31.9999 72.0001 33.1933 72.0001 34.6666V41.3919C71.2081 41.6746 70.4321 41.9959 69.6721 42.3566L64.9148 37.5999C63.8741 36.5586 62.1855 36.5586 61.1455 37.5999L53.6001 45.1453C52.5588 46.1853 52.5588 47.8739 53.6001 48.9146L58.3541 53.672C57.9935 54.432 57.6721 55.208 57.3901 56H50.6668C49.1935 56 48.0001 57.1933 48.0001 58.6666V69.3333C48.0001 70.8066 49.1935 72 50.6668 72H57.3921C57.6748 72.792 57.9961 73.568 58.3568 74.328L53.6001 79.0853C52.5588 80.126 52.5588 81.8146 53.6001 82.8546L61.1455 90.4C62.1855 91.4413 63.8741 91.4413 64.9148 90.4L69.6721 85.646C70.4321 86.0066 71.2081 86.328 72.0001 86.61V93.3333C72.0001 94.8066 73.1934 96 74.6668 96H85.3334C86.8068 96 88.0001 94.8066 88.0001 93.3333V86.608C88.7921 86.3253 89.5681 86.004 90.3281 85.6433L95.0854 90.4C96.1261 91.4413 97.8148 91.4413 98.8548 90.4L106.4 82.8546C107.441 81.8146 107.441 80.126 106.4 79.0853L101.643 74.328ZM96.9701 84.728L92.7041 80.46C91.8434 79.6 90.5094 79.432 89.4601 80.0506C87.9628 80.9333 86.3461 81.6013 84.6614 82.0373C83.4841 82.3413 82.6614 83.4013 82.6614 84.6186V90.6666H77.3334V84.634C77.3334 83.4186 76.5101 82.3566 75.3334 82.0533C73.6481 81.6186 72.0328 80.9493 70.5334 80.0666C69.4854 79.448 68.1508 79.616 67.2908 80.4786L63.0234 84.7433L59.2541 80.974L63.5201 76.7073C64.3814 75.846 64.5501 74.512 63.9321 73.4633C63.0481 71.9653 62.3795 70.3493 61.9435 68.6653C61.6408 67.4873 60.5788 66.6653 59.3635 66.6653H53.3335V61.3333H59.3661C60.5815 61.3333 61.6435 60.51 61.9468 59.3333C62.3815 57.648 63.0508 56.0326 63.9334 54.5333C64.5521 53.4853 64.3841 52.1506 63.5214 51.2906L59.2568 47.0233L63.0261 43.2539L67.2928 47.5199C68.1541 48.3813 69.4881 48.5499 70.5368 47.9319C72.0348 47.0479 73.6508 46.3793 75.3348 45.9433C76.5128 45.6406 77.3348 44.5786 77.3348 43.3633V37.3333H82.6681V43.3659C82.6681 44.5813 83.4921 45.6433 84.6681 45.9466C86.3541 46.3813 87.9701 47.0506 89.4681 47.9333C90.5168 48.5519 91.8521 48.3839 92.7128 47.5213L96.9794 43.2566L100.749 47.0259L96.4834 51.2926C95.6234 52.1539 95.4534 53.488 96.0721 54.5366C96.9541 56.0346 97.6241 57.6506 98.0588 59.3346C98.3628 60.5126 99.4254 61.3346 100.641 61.3346H106.667V66.668H100.634C99.4188 66.668 98.3568 67.492 98.0534 68.668C97.6188 70.354 96.9494 71.97 96.0668 73.468C95.4481 74.5166 95.6161 75.852 96.4788 76.7126L100.743 80.9793L96.9701 84.728Z" fill="#808080"/>
<path d="M79.9999 50.6667C72.6366 50.6667 66.6666 56.6367 66.6666 64C66.6666 71.3634 72.6366 77.3334 79.9999 77.3334C87.3633 77.3334 93.3333 71.3634 93.3333 64C93.3239 56.64 87.3599 50.676 79.9999 50.6667ZM79.9999 72C75.5826 72 72 68.4174 72 64C72 59.5827 75.5826 56 79.9999 56C84.4173 56 87.9999 59.5827 87.9999 64C87.9999 68.4174 84.4173 72 79.9999 72Z" fill="#808080"/>
</svg>
