<svg width="160" height="160" viewBox="0 0 160 160" fill="none" xmlns="http://www.w3.org/2000/svg">
<path d="M149.333 21.3333V26.6667C152.279 26.6667 154.667 29.0547 154.667 32V112H5.33333V32C5.33333 29.0547 7.72135 26.6667 10.6667 26.6667V21.3333C4.77604 21.3333 0 26.1094 0 32V122.667C0 128.557 4.77604 133.333 10.6667 133.333H63.082L56.6823 154.667H50.6667V160H109.333V154.667H103.318L96.918 133.333H149.333C155.224 133.333 160 128.557 160 122.667V32C160 26.1094 155.224 21.3333 149.333 21.3333ZM97.7487 154.667H62.2513L68.651 133.333H91.349L97.7487 154.667ZM154.667 122.667C154.667 125.612 152.279 128 149.333 128H10.6667C7.72135 128 5.33333 125.612 5.33333 122.667V117.333H154.667V122.667Z" fill="#808080"/>
<path d="M21.3333 10.6667C21.3333 7.72135 23.7214 5.33333 26.6667 5.33333H112V16H90.6667C89.9596 16 89.2813 16.2813 88.7813 16.7813L35.4479 70.1146C34.4076 71.1563 34.4076 72.8438 35.4479 73.8854L67.4479 105.885C68.4896 106.926 70.1771 106.926 71.2188 105.885L124.552 52.5521C125.052 52.0521 125.333 51.3737 125.333 50.6667V32H138.667V106.667H144V29.3333C144 29.2773 143.97 29.2266 143.967 29.1706C143.953 28.9349 143.906 28.7018 143.829 28.4779C143.799 28.3919 143.779 28.3125 143.741 28.2292C143.612 27.9388 143.431 27.6745 143.208 27.4479L116.542 0.78125C116.316 0.557292 116.052 0.376302 115.763 0.247396C115.677 0.208333 115.592 0.186198 115.496 0.154948C115.279 0.0807293 115.053 0.0364583 114.824 0.0208333C114.781 0.0325521 114.728 0 114.667 0H26.6667C20.776 0 16 4.77604 16 10.6667V106.667H21.3333V10.6667ZM120 49.5625L69.3333 100.229L41.1042 72L91.7708 21.3333H112.267C113.146 25.5781 116.029 29.1315 120 30.8698V49.5625ZM134.896 26.6667H125.333C120.915 26.6667 117.333 23.0846 117.333 18.6667V9.10417L134.896 26.6667Z" fill="#808080"/>
<path d="M26.6666 10.6667H32V16H26.6666V10.6667Z" fill="#808080"/>
<path d="M37.3334 10.6667H42.6667V16H37.3334V10.6667Z" fill="#808080"/>
<path d="M48 10.6667H53.3333V16H48V10.6667Z" fill="#808080"/>
<path d="M114.667 32C114.667 34.9453 112.279 37.3333 109.333 37.3333C106.388 37.3333 104 34.9453 104 32C104 29.0547 106.388 26.6667 109.333 26.6667C112.279 26.6667 114.667 29.0547 114.667 32Z" fill="#808080"/>
<path d="M51.4479 71.2174L55.2187 67.4466L73.8841 86.112L70.1132 89.8828L51.4479 71.2174Z" fill="#808080"/>
<path d="M59.4479 63.2188L63.2187 59.4466L81.8841 78.1133L78.1132 81.8841L59.4479 63.2188Z" fill="#808080"/>
<path d="M101.28 42.1328C101.069 41.0781 100.244 40.2538 99.1889 40.0429L85.8555 37.3762C84.9844 37.2044 84.0847 37.4765 83.4558 38.1041L75.4558 46.1041C74.8295 46.733 74.5561 47.6328 74.7279 48.5038L77.3946 61.8372C77.6055 62.8919 78.4311 63.7161 79.4857 63.9283L92.8191 66.595C92.987 66.6367 93.1602 66.6601 93.3334 66.6666C94.0404 66.6666 94.7188 66.3854 95.2188 65.8854L103.219 57.8854C103.846 57.2565 104.119 56.3567 103.947 55.4856L101.28 42.1328ZM92.4558 61.0963L82.267 59.0664L80.2292 48.8775L86.211 42.8932L96.3998 44.9335L98.4376 55.1223L92.4558 61.0963Z" fill="#808080"/>
<path d="M26.6666 26.6667H53.3333V32H26.6666V26.6667Z" fill="#808080"/>
<path d="M26.6666 37.3333H53.3333V42.6667H26.6666V37.3333Z" fill="#808080"/>
<path d="M26.6666 48H42.6666V53.3333H26.6666V48Z" fill="#808080"/>
<path d="M128 80H133.333V85.3333H128V80Z" fill="#808080"/>
<path d="M106.667 90.6667H133.333V96H106.667V90.6667Z" fill="#808080"/>
<path d="M106.667 101.333H133.333V106.667H106.667V101.333Z" fill="#808080"/>
<path d="M106.667 80H122.667V85.3333H106.667V80Z" fill="#808080"/>
<path d="M26.6666 90.6667H45.3333V96H26.6666V90.6667Z" fill="#808080"/>
<path d="M26.6666 101.333H53.3333V106.667H26.6666V101.333Z" fill="#808080"/>
</svg>
