<svg width="160" height="160" viewBox="0 0 160 160" fill="none" xmlns="http://www.w3.org/2000/svg">
<g clip-path="url(#clip0)">
<path d="M159.994 32.0147C159.985 24.6562 154.022 18.6921 146.663 18.683H143.983V24.0157H146.663C151.08 24.0157 154.662 27.5973 154.662 32.0147V106.673H5.33271V32.0147C5.33271 27.5973 8.91432 24.0157 13.3318 24.0157H15.9981V18.683H13.3318C5.97196 18.6921 0.00911353 24.6562 0 32.0147V117.338C0.00911353 124.698 5.97196 130.661 13.3318 130.67H62.865L54.1265 154.667H45.328V160H114.653V154.667H105.855L97.1332 130.67H146.668C154.028 130.661 159.992 124.698 160 117.338V109.339L159.994 32.0147ZM100.189 154.667H59.8094L68.5389 130.67H91.4698L100.189 154.667ZM146.668 125.337H13.3318C8.91432 125.337 5.33271 121.756 5.33271 117.338V112.005H154.664V117.338C154.664 121.756 151.085 125.336 146.668 125.337Z" fill="#808080"/>
<path d="M26.6792 13.3502C26.6792 8.9327 30.2608 5.35109 34.6782 5.35109H125.334C129.753 5.35109 133.333 8.9327 133.333 13.3502V101.34H138.666V13.3502C138.658 5.99164 132.694 0.0274851 125.334 0.0183716H34.6782C27.3197 0.0274851 21.3556 5.99164 21.3465 13.3502V101.34H26.6792V13.3502Z" fill="#808080"/>
<path d="M32.0015 10.6839H37.3342V16.0166H32.0015V10.6839Z" fill="#808080"/>
<path d="M42.6669 10.6839H47.9996V16.0166H42.6669V10.6839Z" fill="#808080"/>
<path d="M53.3323 10.6839H58.665V16.0166H53.3323V10.6839Z" fill="#808080"/>
<path d="M45.3281 56.0119H50.6607V61.3446H45.3281V56.0119Z" fill="#808080"/>
<path d="M95.9888 93.3409C100.406 93.3409 103.988 89.7593 103.988 85.3418V68.7604L112.635 66.5979C113.821 66.2997 114.653 65.2348 114.653 64.011V53.3455C114.653 52.123 113.821 51.0567 112.635 50.7599L103.988 48.5974V32.0147C103.958 27.9618 100.9 24.5715 96.8715 24.1237C92.842 23.6771 89.1159 26.3148 88.198 30.2636L58.031 45.3465H45.328C38.3458 45.3334 32.5405 50.7208 32.0353 57.6849C31.5289 64.6502 36.4944 70.8201 43.4051 71.816L50.8287 91.6106C51.2193 92.6521 52.2153 93.3422 53.3271 93.3409H63.9925C64.8674 93.3422 65.6863 92.9125 66.185 92.1939C66.6836 91.4752 66.7982 90.5573 66.4909 89.7384L60.2599 73.1245L88.198 87.0942C89.0157 90.7409 92.251 93.3344 95.9888 93.3409ZM103.988 54.0954L109.321 55.4286V61.9292L103.988 63.2623V54.0954ZM93.3224 32.0147C93.3224 30.5422 94.5163 29.3483 95.9888 29.3483C97.4613 29.3483 98.6552 30.5422 98.6552 32.0147V85.3418C98.6552 86.8143 97.4613 88.0082 95.9888 88.0082C94.5163 88.0082 93.3224 86.8143 93.3224 85.3418V32.0147ZM37.329 58.6782C37.329 54.2608 40.9106 50.6792 45.328 50.6792H55.9935V66.6773H45.328C40.9106 66.6773 37.329 63.0957 37.329 58.6782ZM55.1746 88.0082L49.1753 72.01H54.146L60.1453 88.0082H55.1746ZM87.9897 81.0285L61.3262 67.6967V49.6611L87.9897 36.3293V81.0285Z" fill="#808080"/>
<path d="M110.387 87.4757L113.587 83.2093L124.252 91.2083L121.052 95.4748L110.387 87.4757Z" fill="#808080"/>
<path d="M110.395 29.9056L121.06 21.9065L124.26 26.1729L113.595 34.172L110.395 29.9056Z" fill="#808080"/>
<path d="M116.671 74.5957L117.964 69.4231L128.63 72.0895L127.337 77.2621L116.671 74.5957Z" fill="#808080"/>
<path d="M116.671 42.7609L127.337 40.0945L128.63 45.2684L117.964 47.9347L116.671 42.7609Z" fill="#808080"/>
</g>
<defs>
<clipPath id="clip0">
<rect width="160" height="160" fill="white"/>
</clipPath>
</defs>
</svg>
