<svg width="160" height="160" viewBox="0 0 160 160" fill="none" xmlns="http://www.w3.org/2000/svg">
<path d="M152.5 102.5H143.393C142.863 100.858 142.202 99.2613 141.417 97.725L147.855 91.2875C148.087 91.0554 148.271 90.7798 148.397 90.4764C148.522 90.1731 148.587 89.848 148.587 89.5197C148.587 89.1914 148.522 88.8663 148.397 88.5629C148.271 88.2596 148.087 87.984 147.855 87.7519L137.25 77.1447C137.018 76.9125 136.742 76.7284 136.439 76.6027C136.136 76.4771 135.811 76.4124 135.482 76.4124C135.154 76.4124 134.829 76.4771 134.525 76.6027C134.222 76.7284 133.947 76.9125 133.714 77.1447L127.277 83.5822C125.74 82.797 124.143 82.1364 122.5 81.6066V72.5C122.5 71.837 122.237 71.2011 121.768 70.7322C121.299 70.2634 120.663 70 120 70H105C104.337 70 103.701 70.2634 103.232 70.7322C102.763 71.2011 102.5 71.837 102.5 72.5V81.6066C100.858 82.1367 99.2613 82.7975 97.725 83.5828L91.2875 77.1453C91.0554 76.9132 90.7798 76.729 90.4764 76.6033C90.1731 76.4777 89.848 76.413 89.5197 76.413C89.1914 76.413 88.8663 76.4777 88.5629 76.6033C88.2596 76.729 87.984 76.9132 87.7519 77.1453L77.1447 87.75C76.9125 87.9821 76.7284 88.2578 76.6027 88.5611C76.4771 88.8644 76.4124 89.1895 76.4124 89.5178C76.4124 89.8461 76.4771 90.1712 76.6027 90.4746C76.7284 90.7779 76.9125 91.0535 77.1447 91.2856L83.5822 97.7231C82.797 99.2601 82.1364 100.857 81.6066 102.5H72.5C71.837 102.5 71.2011 102.763 70.7322 103.232C70.2634 103.701 70 104.337 70 105V120C70 120.663 70.2634 121.299 70.7322 121.768C71.2011 122.237 71.837 122.5 72.5 122.5H81.6066C82.1367 124.142 82.7975 125.739 83.5828 127.275L77.1453 133.713C76.9132 133.945 76.729 134.22 76.6033 134.524C76.4777 134.827 76.413 135.152 76.413 135.48C76.413 135.809 76.4777 136.134 76.6033 136.437C76.729 136.74 76.9132 137.016 77.1453 137.248L87.75 147.855C87.9821 148.087 88.2578 148.272 88.5611 148.397C88.8644 148.523 89.1895 148.588 89.5178 148.588C89.8461 148.588 90.1712 148.523 90.4746 148.397C90.7779 148.272 91.0535 148.087 91.2856 147.855L97.7231 141.418C99.26 142.203 100.857 142.863 102.5 143.393V152.5C102.5 153.163 102.763 153.799 103.232 154.268C103.701 154.737 104.337 155 105 155H120C120.663 155 121.299 154.737 121.768 154.268C122.237 153.799 122.5 153.163 122.5 152.5V143.393C124.142 142.863 125.739 142.202 127.275 141.417L133.713 147.855C133.945 148.087 134.22 148.271 134.524 148.397C134.827 148.522 135.152 148.587 135.48 148.587C135.809 148.587 136.134 148.522 136.437 148.397C136.74 148.271 137.016 148.087 137.248 147.855L147.855 137.25C148.087 137.018 148.272 136.742 148.397 136.439C148.523 136.136 148.588 135.811 148.588 135.482C148.588 135.154 148.523 134.829 148.397 134.525C148.272 134.222 148.087 133.947 147.855 133.714L141.418 127.277C142.203 125.74 142.864 124.143 143.393 122.5H152.5C153.163 122.5 153.799 122.237 154.268 121.768C154.737 121.299 155 120.663 155 120V105C155 104.337 154.737 103.701 154.268 103.232C153.799 102.763 153.163 102.5 152.5 102.5V102.5ZM150 117.5H141.517C140.963 117.5 140.424 117.684 139.986 118.023C139.548 118.363 139.235 118.838 139.096 119.375C138.457 121.857 137.472 124.237 136.17 126.444C135.888 126.922 135.773 127.479 135.843 128.029C135.912 128.58 136.163 129.091 136.555 129.483L142.552 135.48L135.481 142.552L129.484 136.554C129.092 136.162 128.58 135.911 128.03 135.842C127.48 135.772 126.922 135.887 126.445 136.169C124.237 137.472 121.857 138.457 119.375 139.096C118.838 139.235 118.363 139.548 118.023 139.986C117.684 140.424 117.5 140.963 117.5 141.517V150H107.5V141.517C107.5 140.963 107.316 140.424 106.977 139.986C106.637 139.548 106.162 139.235 105.625 139.096C103.143 138.457 100.763 137.472 98.5559 136.17C98.0785 135.888 97.5208 135.773 96.9706 135.842C96.4204 135.912 95.909 136.163 95.5169 136.555L89.5197 142.552L82.4484 135.481L88.4456 129.484C88.8378 129.092 89.0884 128.58 89.1581 128.03C89.2278 127.48 89.1126 126.922 88.8306 126.445C87.5281 124.237 86.5429 121.857 85.9041 119.375C85.7655 118.838 85.4525 118.363 85.0143 118.023C84.576 117.684 84.0374 117.5 83.4831 117.5H75V107.5H83.4831C84.0374 107.5 84.576 107.316 85.0143 106.977C85.4525 106.637 85.7655 106.162 85.9041 105.625C86.5428 103.143 87.5277 100.763 88.83 98.5559C89.112 98.0784 89.2272 97.5207 89.1575 96.9705C89.0878 96.4204 88.8372 95.909 88.445 95.5169L82.4478 89.5197L89.5191 82.4484L95.5163 88.4456C95.9084 88.8378 96.4197 89.0884 96.9699 89.1581C97.5201 89.2278 98.0778 89.1126 98.5553 88.8306C100.763 87.5281 103.143 86.5429 105.625 85.9041C106.162 85.7655 106.637 85.4525 106.977 85.0142C107.316 84.576 107.5 84.0374 107.5 83.4831V75H117.5V83.4831C117.5 84.0374 117.684 84.576 118.023 85.0142C118.363 85.4525 118.838 85.7655 119.375 85.9041C121.857 86.5428 124.237 87.5277 126.444 88.83C126.922 89.112 127.479 89.2272 128.029 89.1575C128.58 89.0878 129.091 88.8372 129.483 88.445L135.48 82.4478L142.552 89.5191L136.554 95.5163C136.162 95.9084 135.912 96.4197 135.842 96.9699C135.772 97.5201 135.887 98.0778 136.169 98.5553C137.472 100.763 138.457 103.143 139.096 105.625C139.235 106.162 139.548 106.637 139.986 106.977C140.424 107.316 140.963 107.5 141.517 107.5H150V117.5Z" fill="#808080"/>
<path d="M112.5 105C111.017 105 109.567 105.44 108.333 106.264C107.1 107.088 106.139 108.259 105.571 109.63C105.003 111 104.855 112.508 105.144 113.963C105.434 115.418 106.148 116.754 107.197 117.803C108.246 118.852 109.582 119.566 111.037 119.856C112.492 120.145 114 119.997 115.37 119.429C116.741 118.861 117.912 117.9 118.736 116.667C119.56 115.433 120 113.983 120 112.5C119.998 110.512 119.207 108.605 117.801 107.199C116.395 105.793 114.488 105.002 112.5 105V105ZM112.5 115C112.006 115 111.522 114.853 111.111 114.579C110.7 114.304 110.38 113.914 110.19 113.457C110.001 113 109.952 112.497 110.048 112.012C110.144 111.527 110.383 111.082 110.732 110.732C111.082 110.383 111.527 110.144 112.012 110.048C112.497 109.952 113 110.001 113.457 110.19C113.914 110.38 114.304 110.7 114.579 111.111C114.853 111.522 115 112.006 115 112.5C114.999 113.163 114.736 113.798 114.267 114.267C113.798 114.736 113.163 114.999 112.5 115V115Z" fill="#808080"/>
<path d="M112.5 92.5C108.544 92.5 104.678 93.673 101.389 95.8706C98.0996 98.0682 95.5362 101.192 94.0224 104.846C92.5087 108.501 92.1126 112.522 92.8843 116.402C93.656 120.281 95.5608 123.845 98.3579 126.642C101.155 129.439 104.719 131.344 108.598 132.116C112.478 132.887 116.499 132.491 120.154 130.978C123.808 129.464 126.932 126.9 129.129 123.611C131.327 120.322 132.5 116.456 132.5 112.5C132.494 107.198 130.385 102.114 126.636 98.3644C122.886 94.615 117.803 92.506 112.5 92.5ZM112.5 127.5C109.533 127.5 106.633 126.62 104.166 124.972C101.7 123.324 99.7771 120.981 98.6418 118.24C97.5065 115.499 97.2095 112.483 97.7882 109.574C98.367 106.664 99.7956 103.991 101.893 101.893C103.991 99.7956 106.664 98.367 109.574 97.7882C112.483 97.2094 115.499 97.5065 118.24 98.6418C120.981 99.7771 123.324 101.7 124.972 104.166C126.62 106.633 127.5 109.533 127.5 112.5C127.495 116.477 125.914 120.29 123.102 123.102C120.29 125.914 116.477 127.495 112.5 127.5V127.5Z" fill="#808080"/>
<path d="M15 155H70C72.6513 154.997 75.1931 153.943 77.0678 152.068C78.9425 150.193 79.997 147.651 80 145H75C74.9984 146.326 74.4711 147.597 73.5338 148.534C72.5965 149.471 71.3256 149.999 70 150H15C13.6744 149.999 12.4035 149.471 11.4662 148.534C10.5289 147.597 10.0016 146.326 10 145V60.0002C10.0016 58.6746 10.5289 57.4037 11.4662 56.4664C12.4035 55.529 13.6744 55.0017 15 55.0002H70C71.3256 55.0017 72.5965 55.529 73.5338 56.4664C74.4711 57.4037 74.9984 58.6746 75 60.0002V80.0002H80V60.0002C79.997 57.3489 78.9425 54.8071 77.0678 52.9324C75.1931 51.0577 72.6513 50.0031 70 50.0002H50V7.50016C50 7.07402 49.891 6.65495 49.6835 6.28276C49.476 5.91056 49.1768 5.59759 48.8142 5.37357C48.4517 5.14955 48.038 5.0219 47.6123 5.00277C47.1866 4.98363 46.763 5.07363 46.3819 5.26422L42.5 7.20516L38.6181 5.26422C38.271 5.09062 37.8881 5.00024 37.5 5.00024C37.1119 5.00024 36.729 5.09062 36.3819 5.26422L32.5 7.20516L28.6181 5.26422C28.271 5.09062 27.8881 5.00024 27.5 5.00024C27.1119 5.00024 26.729 5.09062 26.3819 5.26422L22.5 7.20516L18.6181 5.26422C18.237 5.07363 17.8134 4.98363 17.3877 5.00277C16.962 5.0219 16.5483 5.14955 16.1858 5.37357C15.8232 5.59759 15.524 5.91056 15.3165 6.28276C15.109 6.65495 15 7.07402 15 7.50016V50.0002C12.3487 50.0031 9.80694 51.0577 7.93222 52.9324C6.0575 54.8071 5.00298 57.3489 5 60.0002V145C5.00298 147.651 6.0575 150.193 7.93222 152.068C9.80694 153.943 12.3487 154.997 15 155ZM20 11.5452L21.3819 12.2361C21.729 12.4097 22.1119 12.5001 22.5 12.5001C22.8881 12.5001 23.271 12.4097 23.6181 12.2361L27.5 10.2952L31.3819 12.2361C31.729 12.4097 32.1119 12.5001 32.5 12.5001C32.8881 12.5001 33.271 12.4097 33.6181 12.2361L37.5 10.2952L41.3819 12.2361C41.729 12.4097 42.1119 12.5001 42.5 12.5001C42.8881 12.5001 43.271 12.4097 43.6181 12.2361L45 11.5452V50.0002H20V11.5452Z" fill="#808080"/>
<path d="M70 62.5C70 61.837 69.7366 61.2011 69.2678 60.7322C68.7989 60.2634 68.163 60 67.5 60H17.5C16.837 60 16.2011 60.2634 15.7322 60.7322C15.2634 61.2011 15 61.837 15 62.5V82.5C15 83.1631 15.2634 83.7989 15.7322 84.2678C16.2011 84.7366 16.837 85 17.5 85H67.5C68.163 85 68.7989 84.7366 69.2678 84.2678C69.7366 83.7989 70 83.1631 70 82.5V62.5ZM65 80H20V65H65V80Z" fill="#808080"/>
<path d="M30 92.5C30 91.837 29.7366 91.2011 29.2678 90.7322C28.7989 90.2634 28.163 90 27.5 90H17.5C16.837 90 16.2011 90.2634 15.7322 90.7322C15.2634 91.2011 15 91.837 15 92.5V102.5C15 103.163 15.2634 103.799 15.7322 104.268C16.2011 104.737 16.837 105 17.5 105H27.5C28.163 105 28.7989 104.737 29.2678 104.268C29.7366 103.799 30 103.163 30 102.5V92.5ZM25 100H20V95H25V100Z" fill="#808080"/>
<path d="M50 92.5C50 91.837 49.7366 91.2011 49.2678 90.7322C48.7989 90.2634 48.163 90 47.5 90H37.5C36.837 90 36.2011 90.2634 35.7322 90.7322C35.2634 91.2011 35 91.837 35 92.5V102.5C35 103.163 35.2634 103.799 35.7322 104.268C36.2011 104.737 36.837 105 37.5 105H47.5C48.163 105 48.7989 104.737 49.2678 104.268C49.7366 103.799 50 103.163 50 102.5V92.5ZM45 100H40V95H45V100Z" fill="#808080"/>
<path d="M70 92.5C70 91.837 69.7366 91.2011 69.2678 90.7322C68.7989 90.2634 68.163 90 67.5 90H57.5C56.837 90 56.2011 90.2634 55.7322 90.7322C55.2634 91.2011 55 91.837 55 92.5V102.5C55 103.163 55.2634 103.799 55.7322 104.268C56.2011 104.737 56.837 105 57.5 105H65V100H60V95H65V97.5H70V92.5Z" fill="#808080"/>
<path d="M30 112.5C30 111.837 29.7366 111.201 29.2678 110.732C28.7989 110.263 28.163 110 27.5 110H17.5C16.837 110 16.2011 110.263 15.7322 110.732C15.2634 111.201 15 111.837 15 112.5V122.5C15 123.163 15.2634 123.799 15.7322 124.268C16.2011 124.737 16.837 125 17.5 125H27.5C28.163 125 28.7989 124.737 29.2678 124.268C29.7366 123.799 30 123.163 30 122.5V112.5ZM25 120H20V115H25V120Z" fill="#808080"/>
<path d="M50 112.5C50 111.837 49.7366 111.201 49.2678 110.732C48.7989 110.263 48.163 110 47.5 110H37.5C36.837 110 36.2011 110.263 35.7322 110.732C35.2634 111.201 35 111.837 35 112.5V122.5C35 123.163 35.2634 123.799 35.7322 124.268C36.2011 124.737 36.837 125 37.5 125H47.5C48.163 125 48.7989 124.737 49.2678 124.268C49.7366 123.799 50 123.163 50 122.5V112.5ZM45 120H40V115H45V120Z" fill="#808080"/>
<path d="M65 115V110H57.5C56.837 110 56.2011 110.263 55.7322 110.732C55.2634 111.201 55 111.837 55 112.5V142.5C55 143.163 55.2634 143.799 55.7322 144.268C56.2011 144.737 56.837 145 57.5 145H67.5C68.163 145 68.7989 144.737 69.2678 144.268C69.7366 143.799 70 143.163 70 142.5V125H65V140H60V115H65Z" fill="#808080"/>
<path d="M27.5 130H17.5C16.837 130 16.2011 130.263 15.7322 130.732C15.2634 131.201 15 131.837 15 132.5V142.5C15 143.163 15.2634 143.799 15.7322 144.268C16.2011 144.737 16.837 145 17.5 145H27.5C28.163 145 28.7989 144.737 29.2678 144.268C29.7366 143.799 30 143.163 30 142.5V132.5C30 131.837 29.7366 131.201 29.2678 130.732C28.7989 130.263 28.163 130 27.5 130ZM25 140H20V135H25V140Z" fill="#808080"/>
<path d="M47.5 130H37.5C36.837 130 36.2011 130.263 35.7322 130.732C35.2634 131.201 35 131.837 35 132.5V142.5C35 143.163 35.2634 143.799 35.7322 144.268C36.2011 144.737 36.837 145 37.5 145H47.5C48.163 145 48.7989 144.737 49.2678 144.268C49.7366 143.799 50 143.163 50 142.5V132.5C50 131.837 49.7366 131.201 49.2678 130.732C48.7989 130.263 48.163 130 47.5 130ZM45 140H40V135H45V140Z" fill="#808080"/>
<path d="M55 70H60V75H55V70Z" fill="#808080"/>
<path d="M45 70H50V75H45V70Z" fill="#808080"/>
<path d="M35 70H40V75H35V70Z" fill="#808080"/>
<path d="M25 20H40V25H25V20Z" fill="#808080"/>
<path d="M25 30H40V35H25V30Z" fill="#808080"/>
<path d="M25 40H40V45H25V40Z" fill="#808080"/>
<path d="M152.5 5H57.5C56.837 5 56.2011 5.26339 55.7322 5.73223C55.2634 6.20107 55 6.83696 55 7.5V45H60V10H125V32.5C125 33.163 125.263 33.7989 125.732 34.2678C126.201 34.7366 126.837 35 127.5 35H150V82.5H155V7.5C155 6.83696 154.737 6.20107 154.268 5.73223C153.799 5.26339 153.163 5 152.5 5V5ZM150 10V26.4647L133.535 10H150ZM130 13.5356L146.464 30H130V13.5356Z" fill="#808080"/>
<path d="M67.5 35V35.9397C67.5019 37.679 68.1937 39.3465 69.4236 40.5764C70.6535 41.8063 72.321 42.4981 74.0603 42.5H75V47.5H80V42.5H80.9397C82.5858 42.4998 84.1717 41.8808 85.3826 40.7658C86.5936 39.6508 87.3411 38.1213 87.4769 36.4808C87.6127 34.8403 87.1267 33.2087 86.1156 31.9098C85.1044 30.6108 83.6418 29.7395 82.0181 29.4688L73.8038 28.0997C73.4172 28.0357 73.0688 27.8286 72.8279 27.5196C72.587 27.2105 72.4712 26.8221 72.5035 26.4316C72.5358 26.0411 72.7139 25.677 73.0023 25.4118C73.2908 25.1465 73.6685 24.9995 74.0603 25H80.9397C81.3533 25.0006 81.7499 25.1652 82.0424 25.4576C82.3349 25.7501 82.4994 26.1467 82.5 26.5603V27.5H87.5V26.5603C87.4981 24.821 86.8063 23.1535 85.5764 21.9236C84.3466 20.6937 82.679 20.0019 80.9397 20H80V15H75V20H74.0603C72.4142 20.0002 70.8283 20.6192 69.6174 21.7342C68.4064 22.8492 67.6589 24.3787 67.5231 26.0192C67.3873 27.6597 67.8733 29.2913 68.8845 30.5902C69.8956 31.8892 71.3582 32.7605 72.9819 33.0313L81.1963 34.4003C81.5825 34.4647 81.9303 34.6719 82.1708 34.9809C82.4113 35.2898 82.5269 35.6779 82.4946 36.0681C82.4623 36.4583 82.2845 36.8221 81.9965 37.0873C81.7084 37.3525 81.3312 37.4997 80.9397 37.4997H74.0603C73.6467 37.4991 73.2502 37.3346 72.9578 37.0422C72.6653 36.7497 72.5007 36.3533 72.5 35.9397V35H67.5Z" fill="#808080"/>
<path d="M92.5 20H120V25H92.5V20Z" fill="#808080"/>
<path d="M92.5 30H120V35H92.5V30Z" fill="#808080"/>
<path d="M92.5 40H142.5V45H92.5V40Z" fill="#808080"/>
<path d="M92.5 50H142.5V55H92.5V50Z" fill="#808080"/>
<path d="M92.5 60H142.5V65H92.5V60Z" fill="#808080"/>
<path d="M127.5 70H142.5V75H127.5V70Z" fill="#808080"/>
<path d="M92.5 70H97.5V75H92.5V70Z" fill="#808080"/>
</svg>
