<svg width="160" height="160" viewBox="0 0 160 160" fill="none" xmlns="http://www.w3.org/2000/svg">
<g clip-path="url(#clip0)">
<path d="M149.333 21.332H114.667V26.6654H149.333C152.279 26.6654 154.667 29.0534 154.667 31.9987V111.999H5.33333V31.9987C5.33333 29.0534 7.72135 26.6654 10.6667 26.6654H45.3333V21.332H10.6667C4.77604 21.332 0 26.1081 0 31.9987V122.665C0 128.556 4.77604 133.332 10.6667 133.332H63.082L56.6823 154.665H50.6667V159.999H109.333V154.665H103.318L96.918 133.332H149.333C155.224 133.332 160 128.556 160 122.665V31.9987C160 26.1081 155.224 21.332 149.333 21.332V21.332ZM97.7487 154.665H62.2513L68.651 133.332H91.349L97.7487 154.665ZM154.667 122.665C154.667 125.611 152.279 127.999 149.333 127.999H10.6667C7.72135 127.999 5.33333 125.611 5.33333 122.665V117.332H154.667V122.665Z" fill="#808080"/>
<path d="M10.2057 81.8099L11.1276 87.0599C19.7422 85.5534 26.0286 78.0729 26.0286 69.3268C26.0286 60.5807 19.7422 53.1003 11.1276 51.5938L10.2057 56.8437C16.2565 57.9167 20.6641 63.1758 20.6641 69.3216C20.6641 75.4661 16.2565 80.7253 10.2057 81.7982V81.8099Z" fill="#808080"/>
<path d="M45.3333 63.9987C45.3333 62.526 44.1393 61.332 42.6667 61.332H36.2266C35.6042 59.138 34.7266 57.0247 33.6107 55.0364L38.168 50.4765C39.2096 49.4349 39.2096 47.7461 38.168 46.7057L30.6263 39.1641C29.5859 38.1224 27.8971 38.1224 26.8555 39.1641L22.293 43.7318C20.306 42.612 18.194 41.7305 16 41.1055V34.6654C16 33.1927 14.806 31.9987 13.3333 31.9987H10.6667V43.1992C10.6667 44.4661 11.5586 45.5586 12.7995 45.8125C15.8073 46.4232 18.6667 47.6107 21.2213 49.3112C22.2786 50.0117 23.6836 49.8724 24.5807 48.9752L28.7383 44.8177L32.5091 48.5885L28.3516 52.7448C27.4544 53.6419 27.3125 55.0469 28.013 56.1055C29.7174 58.6601 30.9062 61.5221 31.5143 64.5325C31.7682 65.7747 32.862 66.6667 34.1302 66.6653H40V71.9987H34.1328C32.8646 71.9974 31.7708 72.8893 31.5169 74.1315C30.9088 77.1393 29.72 80 28.0182 82.5534C27.3177 83.6107 27.4596 85.0169 28.3568 85.9127L32.5143 90.0703L28.7435 93.8411L24.5872 89.6836C23.6888 88.7864 22.2838 88.6458 21.2266 89.3476C18.6706 91.0495 15.8086 92.2383 12.7995 92.8489C11.5586 93.1028 10.6667 94.1953 10.6667 95.4622V106.665H13.3333C14.806 106.665 16 105.471 16 103.999V97.5586C18.1927 96.9362 20.306 96.0586 22.293 94.9427L26.8555 99.5C27.8971 100.54 29.5859 100.54 30.6263 99.5L38.168 91.9583C39.2096 90.9166 39.2096 89.2291 38.168 88.1875L33.6002 83.6276C34.7187 81.6393 35.6016 79.526 36.2266 77.332H42.6667C44.1393 77.332 45.3333 76.138 45.3333 74.6653V63.9987Z" fill="#808080"/>
<path d="M117.333 77.332H123.773C124.396 79.526 125.273 81.6393 126.389 83.6276L121.832 88.1875C120.79 89.2291 120.79 90.9166 121.832 91.9583L129.374 99.5C130.414 100.54 132.103 100.54 133.145 99.5L137.707 94.9323C139.694 96.0482 141.807 96.9258 144 97.5482V103.999C144 105.471 145.194 106.665 146.667 106.665H149.333V95.4648C149.333 94.1979 148.441 93.1054 147.201 92.8515C144.193 92.2409 141.333 91.0534 138.779 89.3528C137.721 88.651 136.316 88.7916 135.419 89.6888L131.262 93.8463L127.491 90.0755L131.648 85.9193C132.546 85.0221 132.687 83.6159 131.987 82.5586C130.283 80.0039 129.094 77.1419 128.486 74.1315C128.232 72.888 127.135 71.9961 125.867 71.9987H120V66.6653H125.867C127.135 66.6667 128.229 65.7747 128.483 64.5325C129.091 61.5247 130.28 58.664 131.982 56.1107C132.682 55.0521 132.54 53.6471 131.643 52.75L127.486 48.5937L131.256 44.8229L135.413 48.9805C136.311 49.8776 137.716 50.0182 138.773 49.3164C141.329 47.6146 144.191 46.4258 147.201 45.8151C148.441 45.5612 149.333 44.4687 149.333 43.2018V31.9987H146.667C145.194 31.9987 144 33.1927 144 34.6654V41.1055C141.807 41.7266 139.694 42.6055 137.707 43.7213L133.145 39.1641C132.103 38.1224 130.414 38.1224 129.374 39.1641L121.832 46.7057C120.79 47.7461 120.79 49.4349 121.832 50.4765L126.389 55.0364C125.273 57.0247 124.396 59.138 123.773 61.332H117.333C115.861 61.332 114.667 62.526 114.667 63.9987V74.6653C114.667 76.138 115.861 77.332 117.333 77.332V77.332Z" fill="#808080"/>
<path d="M149.794 56.8542L148.872 51.6042C140.258 53.1107 133.971 60.5911 133.971 69.3372C133.971 78.0833 140.258 85.5638 148.872 87.0703L149.794 81.8203C143.744 80.7474 139.336 75.487 139.336 69.3424C139.336 63.1979 143.744 57.9388 149.794 56.8659V56.8542Z" fill="#808080"/>
<path d="M117.333 31.9987H122.667V37.332H117.333V31.9987Z" fill="#808080"/>
<path d="M40 101.332H45.3333V106.665H40V101.332Z" fill="#808080"/>
<path d="M56 106.665H104C105.473 106.665 106.667 105.471 106.667 103.999V15.9987C106.667 15.0299 106.141 14.138 105.293 13.668L81.293 0.334625C80.4883 -0.111989 79.5117 -0.111989 78.707 0.334625L54.707 13.668C53.8594 14.138 53.3333 15.0299 53.3333 15.9987V103.999C53.3333 105.471 54.5274 106.665 56 106.665V106.665ZM58.6667 17.5664L80 5.71614L101.333 17.5664V101.332H58.6667V17.5664Z" fill="#808080"/>
<path d="M85.3333 18.6654C85.3333 21.6107 82.9453 23.9987 80 23.9987C77.0547 23.9987 74.6667 21.6107 74.6667 18.6654C74.6667 15.7201 77.0547 13.332 80 13.332C82.9453 13.332 85.3333 15.7201 85.3333 18.6654Z" fill="#808080"/>
<path d="M94.707 37.7135L81.3737 29.7135C80.5286 29.2057 79.4714 29.2057 78.6263 29.7135L65.293 37.7135C64.4909 38.1953 64 39.0625 64 39.9987V53.332C64 54.2682 64.4909 55.1354 65.293 55.6172L78.6263 63.6172C79.4714 64.125 80.5286 64.125 81.3737 63.6172L94.707 55.6172C95.5091 55.1354 96 54.2682 96 53.332V39.9987C96 39.0625 95.5091 38.1953 94.707 37.7135ZM90.6667 51.8229L80 58.2226L69.3333 51.8229V41.5078L80 35.1081L90.6667 41.5078V51.8229Z" fill="#808080"/>
<path d="M64 90.6654H85.3333V95.9987H64V90.6654Z" fill="#808080"/>
<path d="M90.6667 90.6654H96V95.9987H90.6667V90.6654Z" fill="#808080"/>
<path d="M64 79.9987H96V85.3321H64V79.9987Z" fill="#808080"/>
<path d="M64 69.332H96V74.6654H64V69.332Z" fill="#808080"/>
</g>
<defs>
<clipPath id="clip0">
<rect width="160" height="160" fill="white"/>
</clipPath>
</defs>
</svg>
