<svg width="17" height="18" viewBox="0 0 17 18" fill="none" xmlns="http://www.w3.org/2000/svg">
<g clip-path="url(#clip0)">
<path d="M16.9489 5.11741C16.9075 4.19054 16.7638 3.55757 16.5537 3.0038C16.3404 2.42278 16.0057 1.8965 15.5733 1.46151C15.1488 1.01854 14.6349 0.675614 14.0677 0.45692C13.527 0.241813 12.9093 0.0947324 12.0045 0.052614C11.098 0.0100977 10.8084 0 8.5 0C6.19159 0 5.90196 0.0100977 4.99552 0.0523483C4.09073 0.0947324 3.47297 0.241946 2.93225 0.457186C2.36507 0.675748 1.85133 1.01854 1.4267 1.46151C0.994277 1.89637 0.659522 2.42265 0.446037 3.00366C0.236053 3.55757 0.0924761 4.19054 0.0513609 5.11726C0.00985718 6.04597 0 6.34256 0 8.70724C0 11.0721 0.00985718 11.3688 0.0513609 12.2974C0.0926058 13.2241 0.236313 13.8571 0.446426 14.411C0.659785 14.9919 0.994408 15.5183 1.42682 15.9531C1.85133 16.3961 2.36521 16.7389 2.93238 16.9575C3.47297 17.1728 4.09086 17.3199 4.99562 17.3623C5.90225 17.4047 6.19174 17.4146 8.50015 17.4146C10.8085 17.4146 11.0981 17.4047 12.0046 17.3623C12.9094 17.3199 13.5271 17.1728 14.0679 16.9575C15.2096 16.5052 16.1122 15.5806 16.5537 14.411C16.7639 13.8571 16.9075 13.2241 16.9489 12.2974C16.9901 11.3687 17 11.0721 17 8.70739C17 6.34256 16.9901 6.04597 16.9489 5.11741ZM15.4189 12.226C15.3811 13.075 15.2426 13.5361 15.1262 13.8429C14.8402 14.6023 14.2544 15.2025 13.513 15.4954C13.2136 15.6146 12.7635 15.7565 11.9347 15.7952C11.0386 15.8372 10.7697 15.8459 8.5 15.8459C6.23011 15.8459 5.96137 15.8372 5.06517 15.7952C4.23651 15.7565 3.78645 15.6146 3.48685 15.4954C3.11772 15.3558 2.78375 15.1332 2.50956 14.844C2.2272 14.5631 2.00996 14.2211 1.87364 13.8429C1.7573 13.5361 1.61878 13.075 1.58104 12.226C1.54019 11.308 1.5315 11.0325 1.5315 8.70754C1.5315 6.38242 1.54019 6.10712 1.58104 5.18886C1.61891 4.33988 1.7573 3.87884 1.87364 3.57206C2.00996 3.19379 2.22734 2.85167 2.50956 2.57079C2.78375 2.28155 3.11772 2.059 3.48698 1.91949C3.78645 1.80018 4.23651 1.65841 5.06527 1.61961C5.96151 1.57776 6.2304 1.56886 8.5 1.56886H8.49986C10.7695 1.56886 11.0383 1.57776 11.9347 1.61975C12.7635 1.65841 13.2134 1.80031 13.513 1.91949C13.8822 2.05913 14.2161 2.28168 14.4903 2.57079C14.7727 2.85167 14.9899 3.19379 15.1261 3.57206C15.2426 3.87884 15.3811 4.33988 15.4189 5.18886C15.4597 6.10697 15.4684 6.38242 15.4684 8.70739C15.4684 11.0325 15.4598 11.3078 15.4189 12.226Z" fill="white"/>
<path d="M8.49993 4.09756C6.01469 4.09756 4 6.16153 4 8.70739C4 11.2533 6.01469 13.3171 8.49993 13.3171C10.9853 13.3171 13 11.2533 13 8.70739C13 6.16153 10.9853 4.09756 8.49993 4.09756ZM8.49993 11.6997C6.88681 11.6995 5.57889 10.3599 5.57904 8.70724C5.57904 7.05476 6.88681 5.71499 8.50008 5.71499C10.1134 5.71514 11.4211 7.05476 11.4211 8.70724C11.4211 10.3599 10.1132 11.6997 8.49993 11.6997Z" fill="white"/>
<path d="M14 4.09763C14 4.66334 13.5523 5.12195 13.0001 5.12195C12.4477 5.12195 12 4.66334 12 4.09763C12 3.5318 12.4477 3.07317 13.0001 3.07317C13.5523 3.07317 14 3.5318 14 4.09763Z" fill="white"/>
</g>
<defs>
<clipPath id="clip0">
<rect width="17" height="17.4146" fill="white"/>
</clipPath>
</defs>
</svg>
