<svg width="147" height="43" viewBox="0 0 147 43" fill="none" xmlns="http://www.w3.org/2000/svg">
<path d="M29.4538 2.00974C30.6464 2.67965 31.6171 3.58682 32.3659 4.73126C33.1425 5.87569 33.5308 7.15969 33.5308 8.58325C33.5308 10.0068 32.6433 11.6397 30.8683 13.482C29.0933 15.3242 26.93 16.9013 24.3784 18.2132C21.8546 19.4972 19.6497 20.1392 17.7638 20.1392C15.9056 20.1392 14.5605 19.3577 13.7285 17.7945C8.95818 24.2425 6.26795 28.1503 5.6578 29.518C5.68553 29.6576 5.6994 29.853 5.6994 30.1042C5.6994 30.3833 5.54686 30.5229 5.24178 30.5229C4.93671 30.5229 4.53456 30.2577 4.03534 29.7274C3.56386 29.2249 3.32812 28.4992 3.32812 27.5501C3.32812 27.271 3.34198 27.0477 3.36972 26.8802C3.61933 25.038 6.15701 21.4093 10.9828 15.9942C15.8363 10.579 19.3308 7.2853 21.4663 6.11295C21.9101 5.88965 22.2429 5.778 22.4648 5.778C22.6867 5.778 22.9085 5.84778 23.1304 5.98734C23.38 6.12691 23.5048 6.29438 23.5048 6.48978C23.5048 6.68517 23.4493 6.83869 23.3384 6.95034C21.2583 9.12756 20.0103 10.4534 19.5943 10.9279L14.6437 16.7059C14.5882 16.7897 14.5605 16.8734 14.5605 16.9572C14.5605 17.1525 14.6853 17.2502 14.9349 17.2502C16.0443 17.2502 17.5419 16.9292 19.4279 16.2872C21.3415 15.6452 23.2275 14.8497 25.0857 13.9007C26.9439 12.9237 28.5525 11.7932 29.9114 10.5093C31.2704 9.19734 31.9499 7.98312 31.9499 6.8666C31.9499 5.94547 31.0763 5.2616 29.329 4.815C27.5818 4.36839 25.6958 4.14508 23.6712 4.14508C21.6744 4.14508 19.5111 4.43817 17.1814 5.02434C14.8517 5.5826 12.8132 6.28043 11.066 7.11782C9.34646 7.95521 7.79334 8.83447 6.40662 9.7556C5.01991 10.6488 3.966 11.4443 3.24491 12.1422C2.55156 12.8121 2.20488 13.2587 2.20488 13.482C2.20488 13.6774 2.30195 13.7751 2.49609 13.7751C2.69023 13.7751 3.21718 13.6355 4.07694 13.3564C6.85037 12.4352 9.56833 11.1931 12.2308 9.62999C12.425 9.51834 12.5498 9.46251 12.6052 9.46251C12.6884 9.46251 12.73 9.50438 12.73 9.58812C12.73 9.64395 12.5498 9.90912 12.1892 10.3836C11.8564 10.8302 11.3849 11.3885 10.7748 12.0584C10.1646 12.7004 9.499 13.3285 8.77791 13.9426C8.05681 14.5566 7.23865 15.087 6.32342 15.5336C5.43592 15.9523 4.56229 16.1616 3.70253 16.1616C2.8705 16.1616 2.03847 15.8267 1.20644 15.1568C0.402147 14.4589 0 13.5239 0 12.3515C0 11.1513 0.58242 9.85329 1.74726 8.45764C2.9121 7.06199 4.43749 5.73613 6.32342 4.48004C8.23709 3.22395 10.6084 2.16326 13.4373 1.29796C16.2662 0.432652 19.0257 0 21.716 0C24.4062 0 26.9855 0.669912 29.4538 2.00974Z" fill="white"/>
<path d="M28.2526 26.964C29.1401 26.964 30.2356 26.3778 31.5391 25.2055C32.8426 24.0331 33.5221 23.2236 33.5776 22.777C33.2448 22.4979 32.8842 21.9955 32.4959 21.2697C32.1354 20.5161 31.9412 20.1392 31.9135 20.1392C31.0537 20.9487 30.2911 21.8838 29.6254 22.9445C28.5715 24.7309 28.0446 25.9591 28.0446 26.629C28.0446 26.8523 28.1139 26.964 28.2526 26.964ZM37.2385 16.7059C36.9611 16.7059 36.3787 17.1386 35.4912 18.0039C34.6315 18.8692 34.2016 19.4693 34.2016 19.8043C34.2016 19.888 34.2848 20.0555 34.4512 20.3067C34.6176 20.5579 34.7424 20.6835 34.8256 20.6835C35.2971 20.6835 35.824 20.1113 36.4065 18.9669C37.0166 17.8225 37.3217 17.1665 37.3217 16.999C37.3217 16.8036 37.294 16.7059 37.2385 16.7059ZM37.3217 22.1071C38.0983 22.1071 39.3047 21.6326 40.941 20.6835C42.6051 19.7345 44.0611 18.7855 45.3092 17.8364L47.1812 16.371C47.4309 16.5664 47.5557 16.8036 47.5557 17.0828C47.5557 17.3619 47.4309 17.6131 47.1812 17.8364C42.6051 22.1071 39.1383 24.2425 36.7809 24.2425C36.6145 24.2425 36.3649 24.2145 36.0321 24.1587C32.8981 27.8153 30.2078 29.6436 27.9614 29.6436C26.4637 29.4203 25.5208 28.89 25.1325 28.0526C24.9106 27.6339 24.7997 27.1035 24.7997 26.4615C24.7997 24.6193 25.8536 22.4281 27.9614 19.888C30.0692 17.32 32.7178 15.4359 35.9072 14.2356C36.1846 14.2356 36.3926 14.3054 36.5313 14.445C36.6699 14.5566 36.7947 14.6264 36.9057 14.6543C37.0166 14.6543 37.1553 14.5985 37.3217 14.4869C37.5158 14.3473 37.7654 14.2775 38.0705 14.2775C38.3756 14.2496 38.6945 14.4171 39.0274 14.7799C39.4711 15.1428 39.693 15.5894 39.693 16.1198C39.693 17.6829 38.9025 19.6787 37.3217 22.1071Z" fill="white"/>
<path d="M41.5374 20.9766C43.0628 19.9159 44.6575 18.7715 46.3216 17.5433C45.4341 16.9292 44.8655 16.3291 44.6159 15.7429C44.5327 15.5476 44.4911 15.408 44.4911 15.3242C44.4911 14.766 44.6714 14.4031 45.0319 14.2356C45.3925 14.0402 45.9749 13.9426 46.7792 13.9426C47.0843 13.9426 47.9856 14.3194 49.4833 15.073C50.9809 15.8267 51.9239 16.2035 52.3122 16.2035C52.7282 16.2035 53.2968 16.0919 54.0179 15.8686C54.7389 15.6173 55.3075 15.4917 55.7235 15.4917C56.1673 15.4917 56.4862 15.5894 56.6803 15.7848C57.3737 16.7059 57.7204 17.2642 57.7204 17.4596C57.7204 17.655 57.6233 17.8225 57.4292 17.962C57.2628 18.0737 56.6942 18.4645 55.7235 19.1344C54.7805 19.8043 53.8514 20.4882 52.9362 21.186C52.021 21.8838 51.1612 22.6654 50.3569 23.5307C49.5526 24.396 49.1505 25.0938 49.1505 25.6242C49.1505 25.7079 49.2198 25.7498 49.3585 25.7498C50.8561 25.7498 55.9038 22.6933 64.5014 16.5803C64.6956 16.5803 64.7926 16.7618 64.7926 17.1246C64.7926 17.4596 63.6971 18.6599 61.5061 20.7254C59.3151 22.7631 56.8329 24.7728 54.0595 26.7546C51.3138 28.7085 49.3169 29.6855 48.0688 29.6855C46.1274 29.6855 45.1567 28.7085 45.1567 26.7546C45.1567 25.6939 45.5034 24.6751 46.1968 23.6982C46.9179 22.6933 48.4155 21.3535 50.6897 19.6787C50.2183 19.6787 49.5804 19.567 48.7761 19.3437C47.9718 19.0925 47.4587 18.7994 47.2368 18.4645C46.5157 19.1065 45.2677 20.1811 43.4927 21.6884C43.0767 21.9955 42.5359 22.149 41.8702 22.149C41.2046 22.149 40.8718 22.0513 40.8718 21.8559C40.8718 21.6326 41.0937 21.3395 41.5374 20.9766Z" fill="white"/>
<path d="M65.5015 27.0477L65.8343 24.3681C65.8343 24.2843 65.8065 24.2425 65.7511 24.2425C65.7234 24.2425 65.654 24.2983 65.5431 24.4099C65.1825 24.8007 64.7249 25.2892 64.1702 25.8754C63.6155 26.4336 62.6587 27.2012 61.2997 28.1782C59.9685 29.1272 58.8868 29.6018 58.0548 29.6018C57.9161 29.5738 57.7497 29.518 57.5556 29.4343C57.3337 29.3785 57.0564 29.1551 56.7236 28.7644C56.3908 28.3736 56.2244 27.8153 56.2244 27.0896C56.2244 26.3638 56.779 25.2613 57.8884 23.7819C58.97 22.2746 60.2736 20.8092 61.7989 19.3856C63.3243 17.9341 65.0161 16.678 66.8743 15.6173C68.7603 14.5566 70.3966 14.0263 71.7833 14.0263C72.3102 14.0542 72.7263 14.431 73.0313 15.1568C73.3087 14.8776 73.5583 14.7381 73.7802 14.7381C74.002 14.7381 74.2655 14.9056 74.5706 15.2405C74.737 15.2684 74.9034 15.3661 75.0698 15.5336C75.2362 15.6732 75.3194 15.8825 75.3194 16.1616C75.3194 16.4408 75.1253 16.7478 74.737 17.0828C74.1546 17.8085 73.4751 18.6319 72.6985 19.5531C71.922 20.4742 71.3673 21.1441 71.0345 21.5628C70.7017 21.9536 70.355 22.4002 69.9944 22.9026C69.3843 23.7679 69.0515 24.4658 68.996 24.9961C71.8249 23.6284 76.2763 20.6835 82.3501 16.1616C82.5997 16.357 82.7245 16.5943 82.7245 16.8734C82.7245 17.1525 82.6135 17.3898 82.3917 17.5852C82.1698 17.7806 81.8924 18.0179 81.5596 18.297C81.2546 18.5761 80.6305 19.1204 79.6876 19.9299C78.7446 20.7394 77.8294 21.5209 76.9419 22.2746C76.0821 23.0003 75.0837 23.8238 73.9466 24.7449C72.8372 25.6381 71.8388 26.4057 70.9513 27.0477C68.8157 28.5829 67.4845 29.3505 66.9575 29.3505C66.4306 29.3505 66.0562 29.1831 65.8343 28.8481C65.6124 28.5131 65.5015 27.913 65.5015 27.0477ZM61.2581 25.2892C61.5909 25.2892 62.6032 24.6053 64.295 23.2376C66.0146 21.8698 67.637 20.5021 69.1624 19.1344L71.4921 17.0828C71.603 16.9711 71.6585 16.9013 71.6585 16.8734C71.6585 16.8176 71.6169 16.7897 71.5337 16.7897C70.4798 16.7897 69.1069 17.4038 67.4151 18.6319C65.7233 19.8322 64.2534 21.1162 63.0054 22.4839C61.7851 23.8238 61.1749 24.7309 61.1749 25.2055C61.1749 25.2613 61.2027 25.2892 61.2581 25.2892Z" fill="white"/>
<path d="M87.286 8.3739C86.8977 8.3739 86.2182 7.99708 85.2475 7.24343C84.2491 6.48978 83.7499 5.87569 83.7499 5.40117C83.7499 4.92665 84.0827 4.56378 84.7483 4.31256C86.0241 3.7543 87.3137 3.32165 88.6172 3.0146L89.2413 2.889C89.3799 2.83317 89.5047 2.80526 89.6157 2.80526C89.8098 2.80526 89.9069 2.91691 89.9069 3.14021C89.9069 3.33561 90.0178 3.4333 90.2397 3.4333C90.4616 3.4333 91.4739 3.23791 93.2766 2.84713C98.6848 1.73061 103.802 1.17235 108.628 1.17235C111.456 1.17235 113.855 1.52126 115.825 2.21908C117.821 2.889 118.82 3.852 118.82 5.10808C118.82 5.38721 118.432 5.52678 117.655 5.52678C116.906 5.52678 115.991 5.54073 114.909 5.56865C113.855 5.59656 112.524 5.63843 110.916 5.69425C107.144 5.86173 105.258 6.23856 105.258 6.82473C105.258 6.93638 105.286 7.02012 105.341 7.07595C105.341 7.21552 105.188 7.45278 104.883 7.78773C104.578 8.09477 104.107 8.59721 103.469 9.29503C102.831 9.99286 101.638 11.3327 99.8912 13.3145C98.144 15.2684 96.5354 17.1107 95.0655 18.8413C91.2659 23.3632 88.645 26.8523 87.2028 29.3087C87.1196 30.2577 86.8422 30.7322 86.3708 30.7322C86.0102 30.7322 85.5387 30.4531 84.9563 29.8948C84.3462 29.3366 84.0411 28.6527 84.0411 27.8432C84.0411 26.3359 85.1643 24.2145 87.4108 21.4791C89.6573 18.7436 94.0948 14.3473 100.723 8.29017C101.028 7.98312 101.306 7.7319 101.555 7.53651C101.944 7.22947 102.138 7.04804 102.138 6.99221C102.138 6.93639 102.055 6.90847 101.888 6.90847C101.722 6.90847 101.389 6.93639 100.89 6.99221L88.1596 8.24829C87.9655 8.33203 87.6743 8.3739 87.286 8.3739Z" fill="white"/>
<path d="M98.208 20.9766C99.7334 19.9159 101.328 18.7715 102.992 17.5433C102.105 16.9292 101.536 16.3291 101.287 15.7429C101.203 15.5476 101.162 15.408 101.162 15.3242C101.162 14.766 101.342 14.4031 101.703 14.2356C102.063 14.0402 102.645 13.9426 103.45 13.9426C103.755 13.9426 104.656 14.3194 106.154 15.073C107.652 15.8267 108.594 16.2035 108.983 16.2035C109.399 16.2035 109.967 16.0919 110.688 15.8686C111.41 15.6173 111.978 15.4917 112.394 15.4917C112.838 15.4917 113.157 15.5894 113.351 15.7848C114.044 16.7059 114.391 17.2642 114.391 17.4596C114.391 17.655 114.294 17.8225 114.1 17.962C113.933 18.0737 113.365 18.4645 112.394 19.1344C111.451 19.8043 110.522 20.4882 109.607 21.186C108.692 21.8838 107.832 22.6654 107.028 23.5307C106.223 24.396 105.821 25.0938 105.821 25.6242C105.821 25.7079 105.89 25.7498 106.029 25.7498C107.527 25.7498 112.574 22.6933 121.172 16.5803C121.366 16.5803 121.463 16.7618 121.463 17.1246C121.463 17.4596 120.368 18.6599 118.177 20.7254C115.986 22.7631 113.503 24.7728 110.73 26.7546C107.984 28.7085 105.987 29.6855 104.739 29.6855C102.798 29.6855 101.827 28.7085 101.827 26.7546C101.827 25.6939 102.174 24.6751 102.867 23.6982C103.588 22.6933 105.086 21.3535 107.36 19.6787C106.889 19.6787 106.251 19.567 105.447 19.3437C104.642 19.0925 104.129 18.7994 103.907 18.4645C103.186 19.1065 101.938 20.1811 100.163 21.6884C99.7473 21.9955 99.2064 22.149 98.5408 22.149C97.8752 22.149 97.5424 22.0513 97.5424 21.8559C97.5424 21.6326 97.7643 21.3395 98.208 20.9766Z" fill="white"/>
<path d="M129.369 8.08082C129.646 8.08082 129.827 8.13664 129.91 8.24829C130.298 8.72282 130.492 9.1136 130.492 9.42064C130.492 9.69977 130.409 9.95099 130.243 10.1743C130.076 10.3697 129.868 10.6069 129.619 10.8861C129.397 11.1373 128.925 11.5002 128.204 11.9747C127.511 12.4213 126.831 12.6446 126.166 12.6446C125.667 12.5609 125.417 12.2538 125.417 11.7235C125.417 10.8861 125.916 10.0766 126.915 9.29503C127.913 8.48556 128.731 8.08082 129.369 8.08082ZM119.385 24.5774C119.163 24.9682 119.052 25.3171 119.052 25.6242C119.052 25.9312 119.218 26.0847 119.551 26.0847C119.745 26.0847 120.078 26.001 120.55 25.8335C125.736 23.098 130.811 19.8741 135.776 16.1616C136.025 16.357 136.15 16.5943 136.15 16.8734C136.15 17.1525 136.011 17.4177 135.734 17.6689C135.457 17.9202 135.055 18.283 134.528 18.7575C134.028 19.2321 133.058 20.0834 131.616 21.3116C130.173 22.5398 128.828 23.6563 127.58 24.6612C124.308 27.3129 121.895 28.876 120.342 29.3505C119.842 29.4901 119.302 29.5599 118.719 29.5599C116.584 29.5599 115.516 28.4155 115.516 26.1266C115.516 25.2334 116.001 23.9633 116.972 22.3165C117.943 20.6417 118.941 19.1762 119.967 17.9202C120.993 16.6362 121.673 15.9244 122.006 15.7848C122.505 15.4778 123.046 15.3242 123.628 15.3242C124.211 15.3242 124.765 15.4359 125.292 15.6592C125.459 15.7429 125.542 15.8546 125.542 15.9942C125.542 16.1337 125.403 16.3431 125.126 16.6222C124.876 16.9013 124.474 17.334 123.919 17.9202C123.392 18.5063 122.588 19.5252 121.506 20.9766C120.453 22.4002 119.745 23.6005 119.385 24.5774Z" fill="white"/>
<path d="M132.564 27.5501C133.48 27.5501 134.866 27.0198 136.724 25.9591C138.61 24.8705 140.288 23.6982 141.758 22.4421C143.256 21.186 144.005 20.3067 144.005 19.8043C144.005 19.7205 143.963 19.6787 143.88 19.6787C143.27 19.6787 141.98 20.3067 140.011 21.5628C138.07 22.791 136.267 24.0471 134.603 25.3311C132.939 26.5872 132.107 27.271 132.107 27.3827C132.107 27.4943 132.259 27.5501 132.564 27.5501ZM143.131 9.88121C143.436 9.88121 143.769 10.1185 144.13 10.593C144.49 11.0396 144.67 11.3746 144.67 11.5979C144.67 11.8212 144.629 11.9747 144.546 12.0584C142.632 13.7332 140.774 15.4917 138.971 17.334C137.168 19.1762 135.837 20.5998 134.977 21.6047L133.729 23.112C133.507 23.3353 133.396 23.4888 133.396 23.5725C133.396 23.6563 133.424 23.6982 133.48 23.6982C133.535 23.6982 133.604 23.6563 133.688 23.5725L134.062 23.2795C138.61 19.2042 142.146 17.1665 144.67 17.1665C145.003 17.1665 145.308 17.2642 145.586 17.4596C146.529 18.2412 147 19.1344 147 20.1392C147 21.1162 146.293 22.3723 144.878 23.9075C143.492 25.4427 141.772 26.7965 139.72 27.9688C137.667 29.1133 135.948 29.6855 134.561 29.6855C133.202 29.6855 132.301 29.3226 131.857 28.5969L131.399 27.927C131.372 27.8991 131.33 27.8851 131.275 27.8851C130.665 27.8851 128.654 29.839 125.242 33.7468C121.803 37.6547 119.599 40.4878 118.628 42.2464C118.517 42.7488 118.295 43 117.962 43C117.796 43 117.643 42.9442 117.505 42.8325L115.633 41.3671C115.522 41.3113 115.466 41.1857 115.466 40.9903C115.466 40.6553 117.574 37.9059 121.79 32.742C125.977 27.606 130.373 22.5118 134.977 17.4596C139.581 12.4073 142.299 9.88121 143.131 9.88121Z" fill="white"/>
</svg>
