<svg width="17" height="15" viewBox="0 0 17 15" fill="none" xmlns="http://www.w3.org/2000/svg">
<path d="M16.97 2.47519C16.3024 2.76936 15.6346 2.95306 14.9673 3.02685C15.721 2.56359 16.2309 1.90911 16.4965 1.06348C15.807 1.48255 15.0713 1.76925 14.289 1.92375C13.5997 1.1737 12.7528 0.798523 11.7477 0.798523C10.7858 0.798523 9.96577 1.14592 9.28707 1.84088C8.60887 2.53581 8.26967 3.37588 8.26967 4.36122C8.26967 4.6259 8.29834 4.89808 8.35581 5.17749C6.93442 5.10396 5.60105 4.73814 4.35549 4.07999C3.10999 3.42177 2.05296 2.54485 1.1844 1.4492C0.86853 2.0006 0.71055 2.60001 0.71055 3.24711C0.71055 3.85746 0.8505 4.42376 1.13061 4.94588C1.41053 5.46791 1.78749 5.89068 2.2613 6.21429C1.70128 6.19219 1.17726 6.0414 0.6892 5.76196V5.80607C0.6892 6.66651 0.95301 7.42193 1.48057 8.07292C2.0082 8.72384 2.67405 9.13356 3.47798 9.30277C3.17645 9.38357 2.8713 9.42402 2.56267 9.42402C2.36166 9.42402 2.14269 9.40566 1.90584 9.36915C2.12836 10.0823 2.53756 10.6686 3.1333 11.1284C3.72915 11.5879 4.40395 11.8249 5.15772 11.8399C3.89435 12.8545 2.45507 13.3619 0.83991 13.3619C0.53118 13.3619 0.25129 13.3474 0 13.3179C1.61521 14.384 3.39546 14.9171 5.34086 14.9171C6.57556 14.9171 7.73491 14.7169 8.81847 14.3161C9.90267 13.9155 10.8286 13.3786 11.5968 12.7056C12.3648 12.0327 13.0271 11.2588 13.5834 10.3838C14.1397 9.50863 14.5541 8.59503 14.8271 7.64277C15.0998 6.6903 15.2362 5.73638 15.2362 4.78024C15.2362 4.57432 15.2326 4.41998 15.2254 4.31697C15.9076 3.80982 16.489 3.19569 16.97 2.47519Z" fill="white"/>
</svg>
