<svg width="19" height="12" viewBox="0 0 19 12" fill="none" xmlns="http://www.w3.org/2000/svg">
<path d="M18.7556 10.8697C18.7328 10.8193 18.7115 10.7774 18.6917 10.7439C18.3645 10.1404 17.7394 9.39957 16.8166 8.52126L16.7971 8.50114L16.7873 8.49128L16.7774 8.48117H16.7675C16.3487 8.07218 16.0835 7.79719 15.9724 7.6564C15.7692 7.38821 15.7237 7.11672 15.8348 6.84167C15.9132 6.63384 16.208 6.19495 16.7183 5.52439C16.9867 5.169 17.1993 4.88419 17.3564 4.6696C18.4888 3.12748 18.9797 2.14205 18.829 1.71292L18.7706 1.61264C18.7313 1.55227 18.6298 1.49703 18.4663 1.44666C18.3026 1.3964 18.0932 1.38809 17.8379 1.42159L15.0106 1.44159C14.9648 1.42497 14.8993 1.42651 14.8142 1.44666C14.7291 1.46681 14.6865 1.47691 14.6865 1.47691L14.6372 1.5021L14.5982 1.53236C14.5655 1.55237 14.5295 1.58756 14.4902 1.63786C14.451 1.68798 14.4184 1.74681 14.3922 1.81384C14.0844 2.62508 13.7344 3.37934 13.3417 4.07657C13.0995 4.49232 12.8771 4.85263 12.674 5.1577C12.4711 5.46267 12.3009 5.68736 12.1636 5.8314C12.026 5.97557 11.902 6.09107 11.7904 6.17832C11.6792 6.26561 11.5942 6.30249 11.5353 6.28899C11.4764 6.27551 11.4209 6.26213 11.3683 6.24874C11.2767 6.18836 11.2031 6.10626 11.1476 6.00234C11.0917 5.89844 11.0542 5.76764 11.0346 5.61008C11.015 5.45242 11.0035 5.31681 11.0002 5.20279C10.9971 5.08891 10.9985 4.92783 11.0052 4.72001C11.012 4.51208 11.015 4.37139 11.015 4.29763C11.015 4.04283 11.0199 3.76628 11.0296 3.46793C11.0395 3.16957 11.0475 2.9332 11.0542 2.75904C11.0609 2.58471 11.064 2.40029 11.064 2.20585C11.064 2.01141 11.0524 1.85892 11.0296 1.74825C11.0071 1.63771 10.9725 1.53043 10.9269 1.42641C10.8809 1.3225 10.8137 1.24211 10.7256 1.18505C10.6372 1.12806 10.5274 1.08283 10.3967 1.04923C10.0498 0.96881 9.60804 0.925308 9.07127 0.918545C7.85399 0.90516 7.07183 0.985683 6.72494 1.16001C6.5875 1.23366 6.46313 1.3343 6.35193 1.4616C6.23409 1.60915 6.21766 1.68967 6.30273 1.70291C6.69548 1.76319 6.97351 1.90736 7.13716 2.13529L7.19613 2.25609C7.242 2.34322 7.2878 2.4975 7.33363 2.71871C7.37941 2.93992 7.40894 3.18462 7.42194 3.45268C7.4546 3.94218 7.4546 4.36122 7.42194 4.70979C7.38916 5.05851 7.35822 5.32998 7.32869 5.52442C7.29915 5.71886 7.255 5.87641 7.19613 5.99706C7.13716 6.11774 7.09792 6.1915 7.07826 6.21826C7.05862 6.24504 7.04225 6.26191 7.02926 6.26853C6.94418 6.30192 6.85571 6.31894 6.76414 6.31894C6.67244 6.31894 6.56124 6.27194 6.43036 6.17805C6.29953 6.08413 6.16374 5.95515 6.02299 5.79086C5.88226 5.62654 5.72354 5.39691 5.54676 5.10194C5.37012 4.80697 5.18685 4.45836 4.99704 4.0561L4.84 3.76438C4.74183 3.5767 4.60773 3.30343 4.43755 2.94481C4.26728 2.58605 4.11677 2.23903 3.98593 1.9038C3.93363 1.76301 3.85506 1.65582 3.75036 1.58207L3.70123 1.55181C3.66856 1.52504 3.61612 1.49661 3.54419 1.46631C3.47215 1.43606 3.39698 1.41436 3.31837 1.40101L0.628428 1.42101C0.353548 1.42101 0.167048 1.48481 0.06884 1.61222L0.029538 1.67248C0.00990398 1.70605 0 1.75967 0 1.83345C0 1.90722 0.019635 1.99774 0.058937 2.10493C0.451618 3.05035 0.878658 3.96213 1.34004 4.8404C1.80142 5.71869 2.20236 6.42616 2.5426 6.96221C2.88291 7.49863 3.2298 8.00491 3.58325 8.48078C3.93669 8.95684 4.17065 9.26192 4.28513 9.39594C4.39973 9.53022 4.48975 9.6306 4.55518 9.69763L4.80066 9.93895C4.95774 10.0999 5.18839 10.2926 5.49274 10.5172C5.79715 10.7419 6.13417 10.963 6.50395 11.1811C6.87379 11.3989 7.30407 11.5765 7.79498 11.714C8.28584 11.8515 8.76359 11.9067 9.22834 11.8801H10.3573C10.5862 11.8598 10.7597 11.7861 10.8776 11.6588L10.9167 11.6084C10.943 11.5683 10.9676 11.5063 10.9902 11.4225C11.0132 11.3388 11.0246 11.2465 11.0246 11.146C11.0179 10.8577 11.0393 10.5979 11.0883 10.3667C11.1373 10.1355 11.193 9.96115 11.2554 9.84375C11.3177 9.72645 11.3881 9.62747 11.4664 9.54722C11.5448 9.46682 11.6007 9.4181 11.6336 9.40133C11.6662 9.38446 11.6922 9.37302 11.7118 9.36614C11.8689 9.31254 12.0538 9.36445 12.2666 9.52215C12.4794 9.67971 12.679 9.87425 12.8656 10.1055C13.0522 10.3369 13.2763 10.5966 13.538 10.8848C13.8 11.1731 14.029 11.3874 14.2252 11.5284L14.4214 11.6492C14.5526 11.7296 14.7228 11.8034 14.9322 11.8704C15.1414 11.9374 15.3245 11.9542 15.4818 11.9207L17.9949 11.8806C18.2436 11.8806 18.4369 11.8384 18.5741 11.7547C18.7116 11.6709 18.7933 11.5786 18.8196 11.4782C18.8459 11.3777 18.8473 11.2636 18.8246 11.1361C18.8013 11.0088 18.7784 10.9199 18.7556 10.8697Z" fill="white"/>
</svg>
