<?xml version="1.0" encoding="UTF-8" ?>
<!DOCTYPE svg PUBLIC "-//W3C//DTD SVG 1.1//EN" "http://www.w3.org/Graphics/SVG/1.1/DTD/svg11.dtd">
<svg width="70pt" height="70pt" viewBox="0 0 70 70" version="1.1" xmlns="http://www.w3.org/2000/svg">
<g id="#bb1c1cd4">
<path fill="#bb1c1c" opacity="0.83" d=" M 12.33 6.37 C 26.78 6.25 41.23 6.14 55.68 6.47 C 55.53 7.83 55.38 9.20 55.24 10.56 C 57.60 10.92 59.87 11.66 62.22 12.07 C 62.01 16.27 62.12 20.92 59.41 24.43 C 56.92 27.64 52.52 28.09 49.43 30.48 C 47.55 32.30 46.24 34.60 44.53 36.57 C 42.64 38.85 40.17 40.52 37.80 42.24 C 38.23 44.37 38.69 46.50 39.17 48.62 C 42.99 50.38 46.83 52.14 50.87 53.36 C 51.00 56.71 51.06 60.06 51.14 63.42 C 39.68 63.92 28.21 63.63 16.74 63.72 C 16.69 60.26 16.75 56.79 16.90 53.34 C 21.10 52.33 25.05 50.58 28.93 48.72 C 29.44 46.61 29.93 44.49 30.40 42.37 C 27.86 40.73 25.18 39.18 23.13 36.91 C 21.07 34.64 19.45 32.03 17.70 29.53 C 14.66 28.37 11.21 27.53 9.07 24.89 C 6.28 21.41 5.51 16.69 6.06 12.35 C 8.05 11.01 10.52 10.87 12.80 10.38 C 12.64 9.04 12.48 7.70 12.33 6.37 M 14.82 8.25 C 15.48 15.37 17.06 22.45 20.06 28.97 C 21.77 32.61 24.13 36.12 27.53 38.39 C 32.11 41.38 38.78 40.57 42.36 36.37 C 49.16 28.74 51.83 18.43 53.57 8.60 C 40.66 7.78 27.73 8.52 14.82 8.25 M 7.77 13.22 C 8.20 16.53 8.31 20.04 9.97 23.01 C 11.50 25.42 14.43 26.21 16.85 27.39 C 15.65 22.56 14.22 17.79 13.07 12.95 C 11.31 13.04 9.54 13.13 7.77 13.22 M 54.83 12.96 C 53.50 17.76 52.02 22.53 50.96 27.40 C 53.47 26.28 56.58 25.60 58.08 23.06 C 59.79 20.04 59.92 16.47 60.43 13.12 C 58.56 13.06 56.70 13.01 54.83 12.96 M 32.60 42.13 C 32.15 44.14 31.89 46.22 31.06 48.12 C 29.99 49.91 28.25 51.14 26.76 52.55 C 32.28 52.74 37.81 52.78 43.33 52.49 C 41.81 51.96 40.29 51.44 38.76 50.94 C 37.29 48.17 36.21 45.21 35.35 42.19 C 34.44 42.17 33.52 42.15 32.60 42.13 M 18.97 54.88 C 19.02 57.19 19.06 59.49 19.12 61.79 C 29.05 61.63 38.99 61.66 48.93 61.79 C 48.93 59.46 48.93 57.14 48.93 54.81 C 38.95 54.80 28.96 54.73 18.97 54.88 Z" />
<path fill="#bb1c1c" opacity="0.83" d=" M 31.71 18.47 C 32.81 17.09 33.91 15.71 35.02 14.34 C 35.81 15.73 36.59 17.14 37.37 18.54 C 38.96 18.82 40.54 19.13 42.12 19.43 C 41.19 20.75 40.39 22.14 39.42 23.42 C 39.57 25.26 39.66 27.09 39.78 28.93 C 38.16 28.21 36.57 27.44 34.96 26.70 C 33.47 27.45 31.99 28.19 30.51 28.95 C 30.46 27.17 30.43 25.38 30.42 23.60 C 29.38 22.32 28.34 21.04 27.31 19.76 C 28.77 19.32 30.24 18.89 31.71 18.47 M 34.50 18.45 C 33.40 19.44 32.29 20.43 31.18 21.41 C 31.55 21.69 32.29 22.25 32.66 22.53 C 32.45 23.56 32.25 24.59 32.05 25.62 C 33.61 25.28 35.17 24.96 36.73 24.64 C 37.09 23.45 37.46 22.27 37.82 21.09 C 36.71 20.22 35.60 19.34 34.50 18.45 Z" />
</g>
</svg>
