<?xml version="1.0" encoding="UTF-8" ?>
<!DOCTYPE svg PUBLIC "-//W3C//DTD SVG 1.1//EN" "http://www.w3.org/Graphics/SVG/1.1/DTD/svg11.dtd">
<svg width="70pt" height="70pt" viewBox="0 0 70 70" version="1.1" xmlns="http://www.w3.org/2000/svg">
<g id="#d20b0bf0">
<path fill="#d20b0b" opacity="0.94" d=" M 26.63 6.05 C 30.16 9.66 28.80 16.17 30.15 20.99 C 31.85 22.56 33.77 23.95 34.97 25.97 C 36.30 24.65 37.59 23.29 38.90 21.95 C 40.19 19.05 38.64 13.94 42.12 12.69 C 42.38 15.12 42.54 17.56 42.66 19.99 C 53.56 15.45 65.63 26.79 61.60 38.00 C 63.57 38.36 67.12 36.90 67.22 39.99 C 65.16 39.99 63.11 39.94 61.05 39.92 C 55.47 50.30 44.03 55.06 35.00 61.85 C 26.13 54.85 14.25 50.87 9.11 39.98 C 7.07 40.00 5.03 40.01 2.99 39.99 C 2.99 39.49 3.00 38.50 3.00 38.00 C 4.91 38.00 6.83 38.00 8.74 38.02 C 5.04 27.65 14.88 16.93 25.52 19.03 C 25.95 14.71 25.45 10.28 26.63 6.05 M 10.77 38.00 C 15.31 38.02 19.85 38.00 24.39 38.01 C 24.87 32.31 24.74 26.57 25.44 20.90 C 15.74 18.79 6.76 28.61 10.77 38.00 M 42.71 21.90 C 42.92 29.03 43.77 36.17 43.39 43.30 C 45.41 42.03 46.68 39.98 47.88 37.98 C 51.82 37.94 55.75 38.14 59.68 37.92 C 63.68 27.73 52.64 17.17 42.71 21.90 M 27.10 21.58 C 27.21 27.73 26.66 33.83 25.98 39.93 C 21.25 40.10 16.52 39.96 11.79 39.96 C 15.67 50.16 27.36 53.16 35.00 59.78 C 43.30 53.67 53.73 49.79 59.07 40.38 C 55.76 39.46 52.30 40.14 48.93 40.01 C 46.78 42.29 44.85 44.76 43.01 47.29 C 40.13 39.80 42.09 31.11 40.82 23.18 C 37.78 33.17 38.42 44.98 33.77 54.00 C 30.74 43.54 31.63 30.62 27.10 21.58 M 31.06 24.09 C 31.65 31.13 32.73 38.34 34.52 45.18 C 35.83 38.77 37.66 32.30 37.81 25.76 C 36.85 26.80 36.01 27.92 35.14 29.03 C 33.90 27.28 32.58 25.60 31.06 24.09 Z" />
</g>
</svg>
