<?xml version="1.0" encoding="UTF-8" ?>
<!DOCTYPE svg PUBLIC "-//W3C//DTD SVG 1.1//EN" "http://www.w3.org/Graphics/SVG/1.1/DTD/svg11.dtd">
<svg width="70pt" height="70pt" viewBox="0 0 70 70" version="1.1" xmlns="http://www.w3.org/2000/svg">
<g id="#cd1111ea">
<path fill="#cd1111" opacity="0.92" d=" M 14.53 10.55 C 15.83 9.06 17.82 9.20 19.62 9.15 C 20.89 15.50 23.46 22.11 29.77 24.98 C 31.21 23.57 32.66 22.17 34.10 20.75 C 41.30 23.51 42.37 32.42 47.63 37.40 C 51.17 42.81 57.84 43.22 63.53 44.55 C 68.16 45.86 67.92 51.54 68.46 55.36 C 57.85 58.95 44.95 61.79 34.98 55.05 C 25.46 47.58 16.40 39.54 6.98 31.95 C 4.55 29.99 2.62 27.52 0.79 25.00 C 4.70 19.60 9.66 15.07 14.53 10.55 M 14.75 12.26 C 18.86 23.63 26.19 33.80 35.60 41.38 C 43.55 47.91 54.59 48.71 64.40 47.43 C 54.09 42.43 39.46 43.25 32.98 32.01 C 30.28 26.17 23.35 24.16 20.66 18.35 C 19.43 15.99 18.74 13.40 17.97 10.86 C 16.90 11.33 15.83 11.79 14.75 12.26 M 11.86 14.77 C 13.05 18.63 15.26 22.19 15.67 26.26 C 16.07 28.34 15.88 30.88 17.78 32.30 C 23.69 37.39 29.99 42.04 36.19 46.79 C 44.59 53.61 56.57 52.54 66.20 49.36 C 56.04 50.12 44.72 50.23 36.13 43.91 C 26.94 37.35 19.93 28.03 15.13 17.87 C 14.52 16.40 13.43 15.21 11.86 14.77 M 6.12 21.97 C 8.47 24.61 11.03 27.07 14.03 28.96 C 13.91 24.96 12.67 21.12 10.69 17.65 C 9.11 19.03 7.58 20.46 6.12 21.97 M 4.23 23.03 C 3.90 23.56 3.24 24.61 2.91 25.14 C 12.21 34.87 23.37 42.63 33.48 51.51 C 42.24 59.78 55.31 57.00 65.89 54.71 C 65.93 54.06 66.00 52.77 66.04 52.13 C 56.32 54.03 45.11 55.80 36.58 49.44 C 25.52 41.00 14.56 32.36 4.23 23.03 M 33.04 27.27 C 33.88 33.17 40.77 38.69 46.99 39.99 C 45.01 36.34 41.41 34.50 38.52 31.96 C 38.89 31.57 39.64 30.81 40.01 30.42 C 38.80 29.96 37.60 29.50 36.39 29.04 C 37.30 28.42 38.20 27.80 39.10 27.17 C 37.08 27.22 35.06 27.25 33.04 27.27 Z" />
</g>
</svg>
